<?xml version="1.0" encoding="UTF-8"?>
<svg version="1.1" xmlns="http://www.w3.org/2000/svg" width="1200" height="425">
<path d="M0 0 C18.4353454 15.53795676 24.90217428 37.93988102 27.47265625 61.07421875 C27.47265625 69.32421875 27.47265625 77.57421875 27.47265625 86.07421875 C-9.48734375 86.07421875 -46.44734375 86.07421875 -84.52734375 86.07421875 C-81.79098097 104.83867098 -81.79098097 104.83867098 -70.52734375 119.07421875 C-61.38357544 124.49441638 -50.72628278 125.7958981 -40.375 123.3203125 C-33.6453635 120.96632442 -28.13197191 118.225178 -23.71484375 112.51171875 C-20.29197381 108.46598934 -16.67725435 107.01830732 -11.52734375 106.07421875 C-5.35351641 105.60509701 0.85015657 105.79078519 7.03515625 105.88671875 C8.72850375 105.90179017 10.42186419 105.91547424 12.11523438 105.92773438 C16.23469847 105.96055171 20.35353255 106.01219812 24.47265625 106.07421875 C23.54580295 114.65488775 23.54580295 114.65488775 21.94140625 118.1875 C21.63033936 118.87263672 21.31927246 119.55777344 20.9987793 120.26367188 C20.66015869 120.96427734 20.32153809 121.66488281 19.97265625 122.38671875 C19.43862183 123.49756836 19.43862183 123.49756836 18.89379883 124.63085938 C9.84262313 142.76082385 -5.7132467 153.59608911 -24.27734375 160.4609375 C-46.45021281 167.3014733 -73.16129315 165.04578494 -93.72631836 154.54736328 C-111.13466429 144.92656475 -121.51640834 128.60954692 -127.52734375 110.07421875 C-130.78513475 97.72016424 -131.76619758 85.86526765 -131.77734375 73.13671875 C-131.77801849 72.44513672 -131.77869324 71.75355469 -131.77938843 71.04101562 C-131.73951161 45.3051913 -126.23398299 21.84437799 -107.52734375 3.07421875 C-106.84027344 2.36394531 -106.15320313 1.65367188 -105.4453125 0.921875 C-78.5660268 -25.05977222 -28.16899687 -21.46416608 0 0 Z M-77.77734375 33.38671875 C-82.62342605 40.82891657 -84.52734375 47.21254124 -84.52734375 56.07421875 C-63.40734375 56.07421875 -42.28734375 56.07421875 -20.52734375 56.07421875 C-20.52734375 46.57259179 -22.67710964 38.19629817 -28.83203125 30.7578125 C-35.39077104 24.24440962 -42.86590275 22.06674629 -51.90234375 21.76171875 C-62.64797015 22.01438216 -70.34094445 25.7437528 -77.77734375 33.38671875 Z " fill="#05CA96" transform="translate(846.52734375,87.92578125)"/>
<path d="M0 0 C1.08925781 0.36222656 2.17851562 0.72445312 3.30078125 1.09765625 C20.66266328 7.60560441 32.5231638 20.72060951 40.625 37 C49.27640143 56.85238804 49 76.25288145 49 98 C12.04 98 -24.92 98 -63 98 C-60.09885368 116.4835647 -60.09885368 116.4835647 -49.0234375 130.8203125 C-39.45735972 136.39744665 -29.47046014 137.63007707 -18.65234375 135.26953125 C-11.10556123 132.97837671 -6.42315144 130.27452897 -1.6875 123.875 C2.62016196 119.26680349 8.18310582 117.89780068 14.41821289 117.65942383 C15.93644354 117.65988867 17.45473815 117.67622263 18.97265625 117.70703125 C19.78117538 117.71127609 20.58969452 117.71552094 21.42271423 117.71989441 C23.96966873 117.73649965 26.5157904 117.77411467 29.0625 117.8125 C30.80402492 117.82757042 32.54556241 117.84125466 34.28710938 117.85351562 C38.52505361 117.88634316 42.76238632 117.93799545 47 118 C42.13142768 137.30610619 32.42768047 153.42401084 15.18798828 164.1496582 C-4.63976413 175.90527543 -30.66163929 178.56211156 -53.10913086 173.92382812 C-70.45688054 169.46201827 -84.69388647 159.5832644 -95 145 C-95.53238281 144.26652344 -96.06476563 143.53304687 -96.61328125 142.77734375 C-112.35155845 119.06825949 -113.24402303 84.21797229 -107.97265625 57.26171875 C-103.39996529 36.31813212 -93.63475265 18.87291683 -75.73046875 6.67578125 C-71.28818668 3.94940212 -66.89899571 1.78549649 -62 0 C-60.93394531 -0.39316406 -59.86789062 -0.78632812 -58.76953125 -1.19140625 C-40.32999273 -6.86359013 -18.23388463 -6.17240268 0 0 Z M-55 44 C-60.79782492 51.62283619 -63 58.41919891 -63 68 C-41.55 68 -20.1 68 2 68 C0.12780021 56.76680129 -1.66205479 46.27337499 -11.20703125 39.109375 C-25.26412808 30.41173775 -43.40880795 32.16501615 -55 44 Z " fill="#057FD8" transform="translate(436,76)"/>
<path d="M0 0 C4.29143157 -0.11742499 8.58244273 -0.18765996 12.875 -0.25 C14.07898438 -0.28351562 15.28296875 -0.31703125 16.5234375 -0.3515625 C24.69599666 -0.44039466 32.49062099 0.06886488 38.90771484 5.66308594 C45.43399853 12.43308976 46.33984275 19.90636879 46.26367188 28.9453125 C46.23853516 30.11835937 46.21339844 31.29140625 46.1875 32.5 C46.16719727 34.30597656 46.16719727 34.30597656 46.14648438 36.1484375 C46.11135352 39.09942973 46.06215996 42.04947412 46 45 C47.06347656 44.97808594 48.12695312 44.95617187 49.22265625 44.93359375 C57.11020406 45.07225798 62.63445505 47.78017624 68.33984375 53.16796875 C73.39783759 58.74961372 74.13335705 64.92851973 74.09765625 72.17578125 C74.09515869 73.21903564 74.09266113 74.26229004 74.09008789 75.3371582 C74.08098389 76.649021 74.07187988 77.96088379 74.0625 79.3125 C74.041875 83.499375 74.02125 87.68625 74 92 C64.76 92 55.52 92 46 92 C46 135.23 46 178.46 46 223 C17 223 17 223 7 218 C1.71728724 212.71728724 -0.217507 208.40016242 -0.25816262 200.9367587 C-0.25233693 200.14589661 -0.24651125 199.35503452 -0.24050903 198.54020691 C-0.24221788 197.69063945 -0.24392673 196.84107198 -0.24568737 195.96576005 C-0.24898019 193.12056072 -0.23798193 190.27559751 -0.22705078 187.43041992 C-0.22648662 185.39029954 -0.22680332 183.35017874 -0.22793579 181.31005859 C-0.22851012 175.77123961 -0.21674272 170.23250706 -0.20278788 164.69370818 C-0.19029397 158.90545447 -0.18911107 153.11719883 -0.18673706 147.32893372 C-0.18051836 136.36783922 -0.16410223 125.40678456 -0.14403808 114.44570762 C-0.12169125 101.96699547 -0.11068871 89.48828144 -0.10064721 77.00955427 C-0.07973637 51.33968074 -0.04455277 25.6698426 0 0 Z " fill="#04C4D5" transform="translate(641,25)"/>
<path d="M0 0 C4.29143157 -0.11742499 8.58244273 -0.18765996 12.875 -0.25 C14.07898438 -0.28351562 15.28296875 -0.31703125 16.5234375 -0.3515625 C25.13610169 -0.44517842 32.51887692 0.45244423 39.4375 5.9296875 C39.953125 6.57164063 40.46875 7.21359375 41 7.875 C41.53625 8.51179688 42.0725 9.14859375 42.625 9.8046875 C45.95341697 15.11880777 46.28622766 20.38154512 46.24050903 26.50411987 C46.24221788 27.34637466 46.24392673 28.18862944 46.24568737 29.05640709 C46.24897438 31.87086261 46.23799156 34.68507826 46.22705078 37.49951172 C46.2264865 39.52007542 46.22680356 41.54063954 46.22793579 43.561203 C46.22850963 49.04211382 46.21675017 54.5229371 46.20278788 60.00382757 C46.1902858 65.73335164 46.18911043 71.46287772 46.18673706 77.19241333 C46.18052076 88.04014365 46.16410789 98.88783366 46.14403808 109.73554623 C46.12168377 122.08610981 46.11068682 134.43667532 46.10064721 146.7872541 C46.07974182 172.19152508 46.04456289 197.59576028 46 223 C42.05331061 223.12509012 38.10741343 223.21502442 34.15917969 223.2746582 C32.16820647 223.31169623 30.17778347 223.37528228 28.1875 223.43945312 C19.9878757 223.54298373 13.82275667 222.77338231 7 218 C4.74609375 215.6484375 4.74609375 215.6484375 3.4375 213.375 C2.98246094 212.61960938 2.52742188 211.86421875 2.05859375 211.0859375 C-0.18890063 206.65729544 -0.13805913 202.66461568 -0.12025452 197.81867981 C-0.12110894 196.97490475 -0.12196337 196.13112969 -0.12284368 195.26178569 C-0.12449553 192.4242583 -0.11898191 189.58678955 -0.11352539 186.74926758 C-0.11324343 184.71929424 -0.11340143 182.68932081 -0.1139679 180.65934753 C-0.11425552 175.13903119 -0.1083644 169.61873646 -0.10139394 164.09842515 C-0.09515462 158.33284505 -0.09455614 152.56726448 -0.09336853 146.80168152 C-0.09025693 135.87949232 -0.08204583 124.9573131 -0.07201904 114.0351283 C-0.06085262 101.60240664 -0.05534612 89.16968452 -0.05032361 76.7369591 C-0.03986308 51.1579672 -0.02226693 25.57898416 0 0 Z " fill="#039FDC" transform="translate(500,25)"/>
<path d="M0 0 C3.83326795 -0.05859888 7.66641888 -0.09379643 11.5 -0.125 C12.57765625 -0.14175781 13.6553125 -0.15851563 14.765625 -0.17578125 C24.46353145 -0.23491483 32.30962238 0.52743588 39.6328125 7.5703125 C44.83726624 13.17704286 46.25332609 18.89098777 46.24050903 26.53636169 C46.24325836 27.80810745 46.24600769 29.07985321 46.24884033 30.39013672 C46.24176391 31.7814951 46.23449432 33.17285252 46.22705078 34.56420898 C46.22648607 36.04305514 46.2268044 37.52190185 46.22793579 39.00074768 C46.22850796 43.00025518 46.21677566 46.99964191 46.20278788 50.99912143 C46.19025787 55.18447168 46.18910823 59.36982492 46.18673706 63.55519104 C46.18052895 71.47399481 46.16412721 79.39274315 46.14403808 87.31152254 C46.12165823 96.32964334 46.11068041 105.34776683 46.10064721 114.3659085 C46.07976038 132.91063706 46.04459744 151.45531407 46 170 C41.87417603 170.09969463 37.74882903 170.17185233 33.62207031 170.21972656 C32.22155527 170.2397063 30.82112218 170.2669002 29.42089844 170.30175781 C20.2877689 170.52324598 13.20933895 170.49531758 5.9765625 164.25390625 C5.53054688 163.69574219 5.08453125 163.13757813 4.625 162.5625 C4.16351562 162.00691406 3.70203125 161.45132813 3.2265625 160.87890625 C0.36886956 156.50135751 -0.24895788 152.73565756 -0.24050903 147.55229187 C-0.24463303 145.5983123 -0.24463303 145.5983123 -0.24884033 143.6048584 C-0.2417629 142.1684561 -0.2344933 140.73205475 -0.22705078 139.2956543 C-0.22648642 137.77769478 -0.22680372 136.25973471 -0.22793579 134.74177551 C-0.22850933 130.62645242 -0.21675486 126.51124606 -0.20278788 122.39595008 C-0.19028069 118.09314043 -0.18911003 113.79032807 -0.18673706 109.48750305 C-0.18052226 101.3419713 -0.16411143 93.19649326 -0.14403808 85.05098516 C-0.12167909 75.77656712 -0.11068565 66.50214651 -0.10064721 57.22770822 C-0.07974521 38.15177503 -0.04456922 19.07589184 0 0 Z " fill="#05B1DB" transform="translate(573,78)"/>
<path d="M0 0 C2.51673456 1.83162349 4.79308192 3.80727432 7 6 C7.33 3.36 7.66 0.72 8 -2 C11.63 -2 15.26 -2 19 -2 C19 19.12 19 40.24 19 62 C15.37 62 11.74 62 8 62 C7.505 57.545 7.505 57.545 7 53 C6.34 53.7425 5.68 54.485 5 55.25 C-0.30896931 60.57409457 -7.26049018 63.1064829 -14.6875 63.25 C-23.15613646 63.15022225 -30.28061256 60.31723412 -36.55859375 54.57421875 C-43.97471644 46.82520278 -45.60788412 37.57338956 -45.47045898 27.2097168 C-45.04515439 17.08973572 -41.35793483 9.94023547 -34 3 C-24.57765959 -4.45935283 -10.72805619 -5.58923538 0 0 Z M-29.4375 14.75 C-33.82987377 21.37516376 -34.53501102 27.48368659 -33.6015625 35.3203125 C-32.05114352 42.22672434 -27.73480342 47.10033368 -22 51 C-16.53021763 53.2704757 -11.67517992 53.50167991 -6 52 C-0.45077338 49.54892817 3.16742227 46.44726487 6 41 C9.13650095 32.53144745 8.71659785 25.11030866 5 17 C1.41627949 11.41361215 -2.76477317 8.86532836 -9 7 C-16.90255173 5.51921593 -24.42252584 8.55144313 -29.4375 14.75 Z " fill="#1B608A" transform="translate(745,300)"/>
<path d="M0 0 C5.81218779 4.49692977 9.17509574 10.66522672 10.9375 17.71484375 C10.9375 22.33484375 10.9375 26.95484375 10.9375 31.71484375 C-5.5625 31.71484375 -22.0625 31.71484375 -39.0625 31.71484375 C-35.75827676 42.13108378 -35.75827676 42.13108378 -27.8125 48.58984375 C-21.79388839 50.39542723 -16.65685343 50.7058089 -10.8125 48.15234375 C-7.76106282 46.50146856 -6.47357276 44.97553813 -4.8125 41.96484375 C-3.69140625 40.1328125 -3.69140625 40.1328125 -2.0625 38.71484375 C1.99769508 38.10127945 5.86276982 38.3054211 9.9375 38.71484375 C8.93306741 45.20941359 5.77303633 50.2455206 0.8203125 54.55859375 C-7.94068986 60.74283071 -17.13584228 62.0201317 -27.671875 60.28515625 C-35.41583366 58.3371418 -41.65036664 54.58641914 -45.921875 47.73046875 C-51.27260981 37.28379603 -53.00339112 26.95416069 -49.9375 15.33984375 C-47.07425912 7.128285 -41.57542083 1.25336171 -34.0625 -2.97265625 C-23.1069182 -7.76572329 -10.02540914 -6.24689319 0 0 Z M-36.0625 12.71484375 C-38.3082269 16.50934782 -39.0625 18.25105123 -39.0625 22.71484375 C-26.5225 22.71484375 -13.9825 22.71484375 -1.0625 22.71484375 C-1.0625 15.69372544 -2.62861149 13.63550997 -6.9375 8.46484375 C-11.63865244 4.59330645 -16.79352522 4.32392756 -22.66796875 4.46484375 C-28.58008518 5.08209571 -32.30113712 8.34353013 -36.0625 12.71484375 Z " fill="#1E628B" transform="translate(440.0625,302.28515625)"/>
<path d="M0 0 C3.96 0 7.92 0 12 0 C12.33 9.24 12.66 18.48 13 28 C15.97 25.525 15.97 25.525 19 23 C26.54110042 19.70388988 36.24066323 19.51119397 43.9375 22.5 C49.50860289 25.42067148 53.48297891 30.10386882 56.375 35.625 C57.97716459 41.71322543 58.13399633 47.52301478 58.09765625 53.7734375 C58.0962413 54.6971817 58.09482635 55.6209259 58.09336853 56.57266235 C58.08779609 59.50680862 58.07524869 62.44087701 58.0625 65.375 C58.05748144 67.37109264 58.05291915 69.36718649 58.04882812 71.36328125 C58.03783569 76.24221725 58.0205901 81.12109545 58 86 C54.04 86 50.08 86 46 86 C45.98541748 84.72882324 45.97083496 83.45764648 45.95581055 82.14794922 C45.89770193 77.41768708 45.82046952 72.6878947 45.73754883 67.95800781 C45.70435859 65.9134892 45.67630837 63.86888026 45.65356445 61.82421875 C45.61991007 58.87981794 45.56758834 55.93624046 45.51171875 52.9921875 C45.50532883 52.0825827 45.4989389 51.17297791 45.49235535 50.23580933 C45.37404438 45.09290906 44.86566681 41.44602628 42 37 C37.34491757 32.69404875 33.60280444 31.61959552 27.4140625 31.73046875 C23.29942236 32.18987032 20.27653015 33.49372517 17 36 C12.89356618 41.56129056 12.400022 47.25805732 12.390625 53.96875 C12.37408875 54.88966431 12.35755249 55.81057861 12.34051514 56.75939941 C12.29230372 59.6730026 12.27072417 62.5860849 12.25 65.5 C12.22181783 67.487005 12.19188728 69.47398601 12.16015625 71.4609375 C12.08655211 76.30724873 12.03681378 81.15327534 12 86 C8.04 86 4.08 86 0 86 C0 57.62 0 29.24 0 0 Z " fill="#25678F" transform="translate(533,276)"/>
<path d="M0 0 C40.03731061 0 40.03731061 0 48.49609375 6.4765625 C52.90816362 10.94593198 54.76948642 17.06095182 55.25 23.1875 C54.72213362 31.23746236 52.11770218 37.63515851 46 43 C38.96548358 47.5038461 32.06032676 47.49181767 23.9375 47.25 C19.998125 47.1675 16.05875 47.085 12 47 C12 58.22 12 69.44 12 81 C8.04 81 4.08 81 0 81 C0 54.27 0 27.54 0 0 Z M12 10 C12 19.24 12 28.48 12 38 C16.4859375 38.0928125 16.4859375 38.0928125 21.0625 38.1875 C21.99070557 38.21481201 22.91891113 38.24212402 23.87524414 38.27026367 C30.4536038 38.33563256 35.20551858 37.35324751 40.375 33 C43.52579934 29.12209312 43.49080014 24.78984585 43 20 C41.54629371 15.80040406 39.75320248 13.22836709 35.98388672 10.81152344 C31.75471476 9.08154958 27.11344374 9.60058355 22.625 9.75 C19.11875 9.8325 15.6125 9.915 12 10 Z " fill="#23658E" transform="translate(637,281)"/>
<path d="M0 0 C3.63 0 7.26 0 11 0 C11.33 15.51 11.66 31.02 12 47 C19.67351759 38.63381142 19.67351759 38.63381142 26.9375 30 C28.27989304 28.32383591 29.63240067 26.65566217 31 25 C31.40992188 24.40574219 31.81984375 23.81148438 32.2421875 23.19921875 C35.2402853 21.1538498 38.69443405 21.69352221 42.1875 21.8125 C43.31188477 21.83280273 43.31188477 21.83280273 44.45898438 21.85351562 C46.30629767 21.88881461 48.15324066 21.94262083 50 22 C46.30883869 27.37854933 42.19531631 31.93957144 37.5625 36.5 C28.68112746 44.90702155 28.68112746 44.90702155 22 55 C22.62660522 55.61875 22.62660522 55.61875 23.26586914 56.25 C37.51350241 70.34231893 37.51350241 70.34231893 42.5703125 76.35546875 C44.11027922 78.12685123 45.74928798 79.74513632 47.4375 81.375 C50 84 50 84 50 86 C37.04890388 87.21416526 37.04890388 87.21416526 32.46875 84.5 C30.44276468 82.44185619 28.71872009 80.31947641 27 78 C25.84234248 76.67954689 24.67576077 75.3668596 23.5 74.0625 C21.7675 72.0515625 21.7675 72.0515625 20 70 C17.36 67.03 14.72 64.06 12 61 C11.67 69.25 11.34 77.5 11 86 C7.37 86 3.74 86 0 86 C0 57.62 0 29.24 0 0 Z " fill="#1B608A" transform="translate(824,276)"/>
<path d="M0 0 C4.33320395 -0.08772579 8.66617668 -0.14063579 13 -0.1875 C14.22074219 -0.21263672 15.44148437 -0.23777344 16.69921875 -0.26367188 C25.2308051 -0.3328469 31.05472162 0.34452417 38.25 5.1875 C44.12853837 11.19964152 46.13822087 17.80294183 46.09765625 26.078125 C46.09443359 27.23828125 46.09121094 28.3984375 46.08789062 29.59375 C46.07532227 31.40359375 46.07532227 31.40359375 46.0625 33.25 C46.05798828 34.47203125 46.05347656 35.6940625 46.04882812 36.953125 C46.03704815 39.96879946 46.02059853 42.98437498 46 46 C42.01659695 46.09973852 38.03368892 46.17187198 34.04931641 46.21972656 C32.03652373 46.24946045 30.02407866 46.30031729 28.01171875 46.3515625 C19.23194008 46.43980148 13.53637015 45.97525119 6.7578125 40.03515625 C6.21898437 39.38417969 5.68015625 38.73320313 5.125 38.0625 C4.57070313 37.41410156 4.01640625 36.76570313 3.4453125 36.09765625 C0.29736068 31.52887212 -0.24376027 27.66679024 -0.1953125 22.16796875 C-0.18886719 20.87568359 -0.18242188 19.58339844 -0.17578125 18.25195312 C-0.15907327 16.8971327 -0.14214342 15.54231499 -0.125 14.1875 C-0.11496003 12.81315749 -0.10583596 11.43880797 -0.09765625 10.06445312 C-0.07411242 6.70945683 -0.04122567 3.35481801 0 0 Z " fill="#08BADB" transform="translate(573,25)"/>
<path d="M0 0 C5.80478606 4.7728241 9.28125253 9.96251214 10.8125 17.3125 C6.39061629 17.77864294 2.21504734 18.02744358 -2.1875 17.3125 C-4.12036488 15.44071889 -4.96193167 13.71281314 -6.10546875 11.29296875 C-7.16959428 8.96203055 -7.16959428 8.96203055 -10.375 7.3125 C-16.3450341 5.74658942 -21.61311766 5.43818147 -27.5 7.4375 C-32.30033318 10.78656966 -35.41743639 14.7505668 -37.1875 20.3125 C-37.87333565 28.26641214 -38.13946109 36.19897004 -34.1875 43.3125 C-30.60924802 47.30204531 -26.50042973 49.89838378 -21.15625 50.56640625 C-15.44531938 50.86955496 -10.75233544 49.88811602 -6.1875 46.3125 C-4.45796109 44.03730374 -3.39657515 41.93216283 -2.1875 39.3125 C2.1025 39.3125 6.3925 39.3125 10.8125 39.3125 C8.04420726 47.39591481 5.18085179 53.33814293 -2.5 57.59375 C-12.11612401 62.02222816 -21.69093369 62.79764316 -31.8359375 59.3515625 C-39.37153104 56.02188163 -44.81863933 50.63288464 -48.15625 43.13671875 C-51.7163879 33.0661435 -51.72840999 21.07206773 -47.1875 11.3125 C-36.77392188 -5.92376724 -17.29228465 -9.15473893 0 0 Z " fill="#21648D" transform="translate(510.1875,301.6875)"/>
<path d="M0 0 C18.15 0 36.3 0 55 0 C55 2.97 55 5.94 55 9 C47.74 9 40.48 9 33 9 C33 32.76 33 56.52 33 81 C29.37 81 25.74 81 22 81 C22 57.24 22 33.48 22 9 C14.74 9 7.48 9 0 9 C0 6.03 0 3.06 0 0 Z " fill="#135A86" transform="translate(326,281)"/>
<path d="M0 0 C0 3.96 0 7.92 0 12 C-1.52625 12.0825 -3.0525 12.165 -4.625 12.25 C-9.4005573 12.73633681 -12.31614184 13.76539284 -16 17 C-20.43901368 22.81663861 -20.16580363 29.66557117 -20.31640625 36.6796875 C-20.33718735 37.49245148 -20.35796844 38.30521545 -20.37937927 39.14260864 C-20.44437579 41.71999257 -20.50352593 44.29747194 -20.5625 46.875 C-20.60573277 48.63021791 -20.64934852 50.38542643 -20.69335938 52.140625 C-20.80000549 56.42698738 -20.90141114 60.71344504 -21 65 C-24.63 65 -28.26 65 -32 65 C-32 43.88 -32 22.76 -32 1 C-28.37 1 -24.74 1 -21 1 C-20.67 3.31 -20.34 5.62 -20 8 C-19.55269531 7.59007812 -19.10539063 7.18015625 -18.64453125 6.7578125 C-12.39561165 1.18841295 -8.33818114 -0.28265021 0 0 Z " fill="#1F638C" transform="translate(813,297)"/>
</svg>
