<svg width="874" height="809" viewBox="0 0 874 809" fill="none" xmlns="http://www.w3.org/2000/svg">
<g filter="url(#filter0_f_19_110)">
<rect width="576.55" height="126.377" rx="40" transform="matrix(0.579106 0.815253 -0.996251 -0.0865064 240.418 248.766)" fill="url(#paint0_linear_19_110)"/>
</g>
<rect width="576.55" height="126.377" rx="40" transform="matrix(0.579106 0.815253 -0.996251 -0.0865064 240.418 248.766)" fill="url(#paint1_linear_19_110)"/>
<g filter="url(#filter1_f_19_110)">
<rect width="576.55" height="126.377" rx="40" transform="matrix(0.579106 0.815253 -0.996251 -0.0865064 332.568 174.943)" fill="url(#paint2_linear_19_110)"/>
</g>
<rect width="576.55" height="126.377" rx="40" transform="matrix(0.579106 0.815253 -0.996251 -0.0865064 332.568 174.943)" fill="url(#paint3_linear_19_110)"/>
<g filter="url(#filter2_f_19_110)">
<rect width="576.55" height="126.377" rx="40" transform="matrix(0.579106 0.815253 -0.996251 -0.0865064 424.718 101.12)" fill="url(#paint4_linear_19_110)"/>
</g>
<rect width="576.55" height="126.377" rx="40" transform="matrix(0.579106 0.815253 -0.996251 -0.0865064 424.718 101.12)" fill="url(#paint5_linear_19_110)"/>
<defs>
<filter id="filter0_f_19_110" x="111.428" y="221.108" width="465.96" height="514.417" filterUnits="userSpaceOnUse" color-interpolation-filters="sRGB">
<feFlood flood-opacity="0" result="BackgroundImageFix"/>
<feBlend mode="normal" in="SourceGraphic" in2="BackgroundImageFix" result="shape"/>
<feGaussianBlur stdDeviation="10" result="effect1_foregroundBlur_19_110"/>
</filter>
<filter id="filter1_f_19_110" x="203.578" y="147.285" width="465.96" height="514.417" filterUnits="userSpaceOnUse" color-interpolation-filters="sRGB">
<feFlood flood-opacity="0" result="BackgroundImageFix"/>
<feBlend mode="normal" in="SourceGraphic" in2="BackgroundImageFix" result="shape"/>
<feGaussianBlur stdDeviation="10" result="effect1_foregroundBlur_19_110"/>
</filter>
<filter id="filter2_f_19_110" x="295.728" y="73.4624" width="465.96" height="514.417" filterUnits="userSpaceOnUse" color-interpolation-filters="sRGB">
<feFlood flood-opacity="0" result="BackgroundImageFix"/>
<feBlend mode="normal" in="SourceGraphic" in2="BackgroundImageFix" result="shape"/>
<feGaussianBlur stdDeviation="10" result="effect1_foregroundBlur_19_110"/>
</filter>
<linearGradient id="paint0_linear_19_110" x1="2.19837e-07" y1="63.1885" x2="469.84" y2="96.6721" gradientUnits="userSpaceOnUse">
<stop stop-color="#D1D5DB"/>
<stop offset="1" stop-color="white"/>
</linearGradient>
<linearGradient id="paint1_linear_19_110" x1="2.19837e-07" y1="63.1885" x2="469.84" y2="96.6721" gradientUnits="userSpaceOnUse">
<stop stop-color="#D1D5DB"/>
<stop offset="1" stop-color="white"/>
</linearGradient>
<linearGradient id="paint2_linear_19_110" x1="2.19837e-07" y1="63.1885" x2="469.84" y2="96.6721" gradientUnits="userSpaceOnUse">
<stop stop-color="#D1D5DB"/>
<stop offset="1" stop-color="white"/>
</linearGradient>
<linearGradient id="paint3_linear_19_110" x1="2.19837e-07" y1="63.1885" x2="469.84" y2="96.6721" gradientUnits="userSpaceOnUse">
<stop stop-color="#D1D5DB"/>
<stop offset="1" stop-color="white"/>
</linearGradient>
<linearGradient id="paint4_linear_19_110" x1="2.19837e-07" y1="63.1885" x2="469.84" y2="96.6721" gradientUnits="userSpaceOnUse">
<stop stop-color="#D1D5DB"/>
<stop offset="1" stop-color="white"/>
</linearGradient>
<linearGradient id="paint5_linear_19_110" x1="2.19837e-07" y1="63.1885" x2="469.84" y2="96.6721" gradientUnits="userSpaceOnUse">
<stop stop-color="#D1D5DB"/>
<stop offset="1" stop-color="white"/>
</linearGradient>
</defs>
</svg>
