<svg width="874" height="920" viewBox="0 0 874 920" fill="none" xmlns="http://www.w3.org/2000/svg">
<rect x="43.2293" y="2" width="787" height="916" rx="42" fill="white" stroke="#E5E7EB" stroke-width="4"/>
<g filter="url(#filter0_f_23_100)">
<rect width="576.55" height="126.377" rx="40" transform="matrix(0.579106 0.815253 -0.996251 -0.0865064 240.418 304.766)" fill="url(#paint0_linear_23_100)"/>
</g>
<rect width="576.55" height="126.377" rx="40" transform="matrix(0.579106 0.815253 -0.996251 -0.0865064 240.418 304.766)" fill="url(#paint1_linear_23_100)"/>
<g filter="url(#filter1_f_23_100)">
<rect width="576.55" height="126.377" rx="40" transform="matrix(0.579106 0.815253 -0.996251 -0.0865064 332.568 230.943)" fill="url(#paint2_linear_23_100)"/>
</g>
<rect width="576.55" height="126.377" rx="40" transform="matrix(0.579106 0.815253 -0.996251 -0.0865064 332.568 230.943)" fill="url(#paint3_linear_23_100)"/>
<g filter="url(#filter2_f_23_100)">
<rect width="576.55" height="126.377" rx="40" transform="matrix(0.579106 0.815253 -0.996251 -0.0865064 424.718 157.12)" fill="url(#paint4_linear_23_100)"/>
</g>
<rect width="576.55" height="126.377" rx="40" transform="matrix(0.579106 0.815253 -0.996251 -0.0865064 424.718 157.12)" fill="url(#paint5_linear_23_100)"/>
<path d="M286.835 451V421.909H307.801V428.273H294.733V433.273H306.721V439.636H294.733V444.636H307.744V451H286.835ZM319.672 421.909V451H311.831V421.909H319.672ZM323.667 451V429.182H331.508V451H323.667ZM327.588 426.909C326.527 426.909 325.618 426.559 324.86 425.858C324.103 425.157 323.724 424.314 323.724 423.33C323.724 422.345 324.103 421.502 324.86 420.801C325.618 420.1 326.527 419.75 327.588 419.75C328.658 419.75 329.567 420.1 330.315 420.801C331.072 421.502 331.451 422.345 331.451 423.33C331.451 424.314 331.072 425.157 330.315 425.858C329.567 426.559 328.658 426.909 327.588 426.909ZM348.514 429.182V434.864H334.139V429.182H348.514ZM336.924 423.955H344.764V443.983C344.764 444.286 344.817 444.542 344.921 444.75C345.025 444.949 345.186 445.1 345.404 445.205C345.622 445.299 345.901 445.347 346.242 445.347C346.479 445.347 346.753 445.318 347.066 445.261C347.388 445.205 347.624 445.157 347.776 445.119L348.912 450.631C348.562 450.735 348.06 450.863 347.407 451.014C346.763 451.166 345.996 451.265 345.105 451.312C343.306 451.407 341.796 451.223 340.574 450.759C339.353 450.285 338.434 449.542 337.818 448.528C337.203 447.515 336.905 446.246 336.924 444.722V423.955ZM361.934 451.398C359.605 451.398 357.597 450.953 355.912 450.062C354.235 449.163 352.943 447.875 352.034 446.199C351.134 444.513 350.684 442.496 350.684 440.148C350.684 437.894 351.139 435.924 352.048 434.239C352.957 432.553 354.24 431.241 355.897 430.304C357.555 429.366 359.51 428.898 361.764 428.898C363.412 428.898 364.903 429.153 366.238 429.665C367.573 430.176 368.715 430.92 369.662 431.895C370.608 432.861 371.338 434.035 371.849 435.418C372.36 436.8 372.616 438.358 372.616 440.091V441.909H353.127V437.591H365.4C365.391 436.966 365.23 436.417 364.917 435.943C364.614 435.46 364.202 435.086 363.681 434.821C363.17 434.546 362.588 434.409 361.934 434.409C361.3 434.409 360.717 434.546 360.187 434.821C359.657 435.086 359.231 435.455 358.909 435.929C358.596 436.402 358.43 436.956 358.412 437.591V442.25C358.412 442.951 358.558 443.576 358.852 444.125C359.145 444.674 359.567 445.105 360.116 445.418C360.665 445.73 361.328 445.886 362.105 445.886C362.644 445.886 363.137 445.811 363.582 445.659C364.037 445.508 364.425 445.29 364.747 445.006C365.069 444.712 365.305 444.362 365.457 443.955H372.616C372.37 445.47 371.787 446.786 370.869 447.903C369.95 449.011 368.733 449.873 367.218 450.489C365.713 451.095 363.951 451.398 361.934 451.398ZM382.875 428.273V421.909H408.159V428.273H399.409V451H391.625V428.273H382.875ZM418.536 451.398C416.206 451.398 414.199 450.953 412.513 450.062C410.837 449.163 409.544 447.875 408.635 446.199C407.736 444.513 407.286 442.496 407.286 440.148C407.286 437.894 407.74 435.924 408.649 434.239C409.559 432.553 410.842 431.241 412.499 430.304C414.156 429.366 416.112 428.898 418.365 428.898C420.013 428.898 421.505 429.153 422.84 429.665C424.175 430.176 425.316 430.92 426.263 431.895C427.21 432.861 427.939 434.035 428.451 435.418C428.962 436.8 429.218 438.358 429.218 440.091V441.909H409.729V437.591H422.002C421.992 436.966 421.831 436.417 421.519 435.943C421.216 435.46 420.804 435.086 420.283 434.821C419.772 434.546 419.189 434.409 418.536 434.409C417.901 434.409 417.319 434.546 416.789 434.821C416.258 435.086 415.832 435.455 415.51 435.929C415.198 436.402 415.032 436.956 415.013 437.591V442.25C415.013 442.951 415.16 443.576 415.453 444.125C415.747 444.674 416.168 445.105 416.718 445.418C417.267 445.73 417.93 445.886 418.706 445.886C419.246 445.886 419.738 445.811 420.184 445.659C420.638 445.508 421.026 445.29 421.348 445.006C421.67 444.712 421.907 444.362 422.059 443.955H429.218C428.971 445.47 428.389 446.786 427.47 447.903C426.552 449.011 425.335 449.873 423.82 450.489C422.314 451.095 420.553 451.398 418.536 451.398ZM442.929 451.398C440.561 451.398 438.535 450.929 436.849 449.991C435.163 449.045 433.871 447.728 432.971 446.043C432.072 444.348 431.622 442.383 431.622 440.148C431.622 437.913 432.072 435.953 432.971 434.267C433.871 432.572 435.163 431.256 436.849 430.318C438.535 429.371 440.561 428.898 442.929 428.898C445.069 428.898 446.92 429.286 448.483 430.062C450.055 430.83 451.271 431.919 452.133 433.33C452.995 434.731 453.43 436.379 453.44 438.273H446.167C446.063 437.127 445.732 436.256 445.173 435.659C444.624 435.053 443.913 434.75 443.042 434.75C442.36 434.75 441.764 434.949 441.252 435.347C440.741 435.735 440.343 436.327 440.059 437.122C439.775 437.908 439.633 438.898 439.633 440.091C439.633 441.284 439.775 442.278 440.059 443.074C440.343 443.86 440.741 444.452 441.252 444.849C441.764 445.238 442.36 445.432 443.042 445.432C443.62 445.432 444.131 445.299 444.576 445.034C445.021 444.759 445.381 444.362 445.656 443.841C445.94 443.311 446.11 442.667 446.167 441.909H453.44C453.412 443.831 452.971 445.508 452.119 446.938C451.267 448.358 450.059 449.456 448.497 450.233C446.944 451.009 445.088 451.398 442.929 451.398ZM464.516 438.727V451H456.675V421.909H464.232V433.33H464.459C464.952 431.937 465.771 430.853 466.916 430.077C468.062 429.291 469.44 428.898 471.05 428.898C472.594 428.898 473.934 429.248 475.07 429.949C476.216 430.65 477.101 431.616 477.726 432.847C478.361 434.078 478.673 435.489 478.664 437.08V451H470.823V438.727C470.832 437.648 470.562 436.8 470.013 436.185C469.473 435.569 468.702 435.261 467.698 435.261C467.063 435.261 466.505 435.403 466.022 435.688C465.548 435.962 465.179 436.36 464.914 436.881C464.658 437.392 464.525 438.008 464.516 438.727ZM517.549 432.818H509.537C509.48 432.155 509.329 431.554 509.083 431.014C508.846 430.474 508.514 430.01 508.088 429.622C507.672 429.224 507.165 428.921 506.568 428.713C505.972 428.495 505.295 428.386 504.537 428.386C503.211 428.386 502.089 428.708 501.171 429.352C500.262 429.996 499.57 430.92 499.097 432.122C498.633 433.325 498.401 434.769 498.401 436.455C498.401 438.235 498.638 439.726 499.111 440.929C499.594 442.122 500.29 443.022 501.199 443.628C502.108 444.224 503.202 444.523 504.48 444.523C505.21 444.523 505.863 444.433 506.441 444.253C507.018 444.063 507.52 443.794 507.946 443.443C508.372 443.093 508.718 442.671 508.983 442.179C509.258 441.677 509.443 441.114 509.537 440.489L517.549 440.545C517.454 441.777 517.108 443.031 516.512 444.31C515.915 445.579 515.068 446.753 513.969 447.832C512.88 448.902 511.531 449.764 509.921 450.418C508.311 451.071 506.441 451.398 504.31 451.398C501.639 451.398 499.244 450.825 497.122 449.679C495.011 448.533 493.339 446.848 492.108 444.622C490.887 442.397 490.276 439.674 490.276 436.455C490.276 433.216 490.901 430.489 492.151 428.273C493.401 426.047 495.086 424.366 497.208 423.23C499.329 422.084 501.696 421.511 504.31 421.511C506.147 421.511 507.837 421.762 509.381 422.264C510.925 422.766 512.279 423.5 513.443 424.466C514.608 425.422 515.546 426.601 516.256 428.003C516.966 429.404 517.397 431.009 517.549 432.818ZM531.757 451.398C529.389 451.398 527.363 450.929 525.677 449.991C523.992 449.045 522.699 447.728 521.799 446.043C520.9 444.348 520.45 442.383 520.45 440.148C520.45 437.913 520.9 435.953 521.799 434.267C522.699 432.572 523.992 431.256 525.677 430.318C527.363 429.371 529.389 428.898 531.757 428.898C534.124 428.898 536.151 429.371 537.836 430.318C539.522 431.256 540.814 432.572 541.714 434.267C542.614 435.953 543.064 437.913 543.064 440.148C543.064 442.383 542.614 444.348 541.714 446.043C540.814 447.728 539.522 449.045 537.836 449.991C536.151 450.929 534.124 451.398 531.757 451.398ZM531.814 445.602C532.476 445.602 533.049 445.38 533.532 444.935C534.015 444.49 534.389 443.855 534.654 443.031C534.92 442.207 535.052 441.227 535.052 440.091C535.052 438.945 534.92 437.965 534.654 437.151C534.389 436.327 534.015 435.692 533.532 435.247C533.049 434.802 532.476 434.58 531.814 434.58C531.113 434.58 530.511 434.802 530.01 435.247C529.508 435.692 529.124 436.327 528.859 437.151C528.594 437.965 528.461 438.945 528.461 440.091C528.461 441.227 528.594 442.207 528.859 443.031C529.124 443.855 529.508 444.49 530.01 444.935C530.511 445.38 531.113 445.602 531.814 445.602ZM546.245 451V429.182H553.859V433.33H554.086C554.484 431.795 555.114 430.673 555.975 429.963C556.847 429.253 557.865 428.898 559.029 428.898C559.37 428.898 559.706 428.926 560.038 428.983C560.379 429.03 560.706 429.101 561.018 429.196V435.886C560.63 435.754 560.152 435.654 559.583 435.588C559.015 435.522 558.528 435.489 558.12 435.489C557.353 435.489 556.662 435.664 556.046 436.014C555.44 436.355 554.962 436.838 554.612 437.463C554.261 438.079 554.086 438.803 554.086 439.636V451H546.245ZM563.589 459.182V429.182H571.373V432.989H571.544C571.828 432.25 572.244 431.573 572.794 430.957C573.343 430.332 574.025 429.835 574.839 429.466C575.653 429.087 576.6 428.898 577.68 428.898C579.119 428.898 580.488 429.281 581.785 430.048C583.092 430.815 584.153 432.023 584.967 433.67C585.791 435.318 586.203 437.458 586.203 440.091C586.203 442.61 585.81 444.698 585.024 446.355C584.247 448.012 583.206 449.248 581.899 450.062C580.601 450.877 579.176 451.284 577.623 451.284C576.6 451.284 575.687 451.118 574.882 450.787C574.086 450.446 573.404 449.987 572.836 449.409C572.278 448.822 571.847 448.159 571.544 447.42H571.43V459.182H563.589ZM571.26 440.091C571.26 441.152 571.397 442.07 571.671 442.847C571.956 443.614 572.353 444.21 572.865 444.636C573.385 445.053 574.006 445.261 574.725 445.261C575.445 445.261 576.056 445.058 576.558 444.651C577.069 444.234 577.457 443.642 577.723 442.875C577.997 442.098 578.135 441.17 578.135 440.091C578.135 439.011 577.997 438.088 577.723 437.321C577.457 436.545 577.069 435.953 576.558 435.545C576.056 435.129 575.445 434.92 574.725 434.92C574.006 434.92 573.385 435.129 572.865 435.545C572.353 435.953 571.956 436.545 571.671 437.321C571.397 438.088 571.26 439.011 571.26 440.091Z" fill="#009CDC"/>
<path d="M160.201 499V469.909H177.758V473.034H163.724V482.864H176.849V485.989H163.724V495.875H177.985V499H160.201ZM187.005 469.909V499H183.653V469.909H187.005ZM202.293 499.455C200.191 499.455 198.377 498.991 196.853 498.062C195.337 497.125 194.168 495.818 193.344 494.142C192.53 492.456 192.122 490.496 192.122 488.261C192.122 486.027 192.53 484.057 193.344 482.352C194.168 480.638 195.314 479.303 196.782 478.347C198.259 477.381 199.982 476.898 201.952 476.898C203.088 476.898 204.211 477.087 205.318 477.466C206.426 477.845 207.435 478.46 208.344 479.312C209.253 480.155 209.978 481.273 210.517 482.665C211.057 484.057 211.327 485.771 211.327 487.807V489.227H194.509V486.33H207.918C207.918 485.098 207.672 484 207.179 483.034C206.696 482.068 206.005 481.306 205.105 480.747C204.215 480.188 203.164 479.909 201.952 479.909C200.617 479.909 199.461 480.241 198.486 480.903C197.52 481.557 196.777 482.409 196.256 483.46C195.735 484.511 195.475 485.638 195.475 486.841V488.773C195.475 490.42 195.759 491.817 196.327 492.963C196.905 494.099 197.705 494.966 198.728 495.562C199.75 496.15 200.939 496.443 202.293 496.443C203.174 496.443 203.969 496.32 204.679 496.074C205.399 495.818 206.019 495.439 206.54 494.938C207.061 494.426 207.463 493.792 207.747 493.034L210.986 493.943C210.645 495.042 210.072 496.008 209.267 496.841C208.462 497.665 207.468 498.309 206.284 498.773C205.101 499.227 203.77 499.455 202.293 499.455ZM233.603 477.182L225.535 499H222.126L214.058 477.182H217.694L223.717 494.568H223.944L229.967 477.182H233.603ZM243.784 499.511C242.402 499.511 241.147 499.251 240.02 498.73C238.893 498.2 237.998 497.438 237.336 496.443C236.673 495.439 236.341 494.227 236.341 492.807C236.341 491.557 236.587 490.544 237.08 489.767C237.572 488.981 238.23 488.366 239.054 487.92C239.878 487.475 240.787 487.144 241.782 486.926C242.785 486.699 243.794 486.519 244.807 486.386C246.133 486.216 247.208 486.088 248.032 486.003C248.865 485.908 249.471 485.752 249.85 485.534C250.238 485.316 250.432 484.937 250.432 484.398V484.284C250.432 482.883 250.049 481.794 249.282 481.017C248.524 480.241 247.373 479.852 245.83 479.852C244.229 479.852 242.975 480.203 242.066 480.903C241.157 481.604 240.517 482.352 240.148 483.148L236.966 482.011C237.534 480.686 238.292 479.653 239.239 478.915C240.195 478.167 241.237 477.646 242.364 477.352C243.5 477.049 244.618 476.898 245.716 476.898C246.417 476.898 247.222 476.983 248.131 477.153C249.05 477.314 249.935 477.651 250.787 478.162C251.649 478.673 252.364 479.445 252.932 480.477C253.5 481.509 253.784 482.892 253.784 484.625V499H250.432V496.045H250.262C250.034 496.519 249.656 497.026 249.125 497.565C248.595 498.105 247.889 498.564 247.009 498.943C246.128 499.322 245.053 499.511 243.784 499.511ZM244.296 496.5C245.622 496.5 246.739 496.24 247.648 495.719C248.567 495.198 249.258 494.526 249.722 493.702C250.195 492.878 250.432 492.011 250.432 491.102V488.034C250.29 488.205 249.978 488.361 249.495 488.503C249.021 488.635 248.472 488.754 247.847 488.858C247.231 488.953 246.63 489.038 246.043 489.114C245.465 489.18 244.997 489.237 244.637 489.284C243.765 489.398 242.951 489.582 242.193 489.838C241.445 490.084 240.839 490.458 240.375 490.96C239.921 491.453 239.693 492.125 239.693 492.977C239.693 494.142 240.124 495.023 240.986 495.619C241.857 496.206 242.961 496.5 244.296 496.5ZM269.392 477.182V480.023H258.085V477.182H269.392ZM261.38 471.955H264.733V492.75C264.733 493.697 264.87 494.407 265.144 494.881C265.429 495.345 265.788 495.657 266.224 495.818C266.669 495.97 267.138 496.045 267.63 496.045C268 496.045 268.303 496.027 268.539 495.989C268.776 495.941 268.965 495.903 269.108 495.875L269.789 498.886C269.562 498.972 269.245 499.057 268.838 499.142C268.43 499.237 267.914 499.284 267.289 499.284C266.342 499.284 265.414 499.08 264.505 498.673C263.606 498.266 262.858 497.646 262.261 496.812C261.674 495.979 261.38 494.928 261.38 493.659V471.955ZM283.348 499.455C281.245 499.455 279.432 498.991 277.907 498.062C276.392 497.125 275.223 495.818 274.399 494.142C273.584 492.456 273.177 490.496 273.177 488.261C273.177 486.027 273.584 484.057 274.399 482.352C275.223 480.638 276.368 479.303 277.836 478.347C279.314 477.381 281.037 476.898 283.007 476.898C284.143 476.898 285.265 477.087 286.373 477.466C287.481 477.845 288.49 478.46 289.399 479.312C290.308 480.155 291.032 481.273 291.572 482.665C292.112 484.057 292.382 485.771 292.382 487.807V489.227H275.564V486.33H288.973C288.973 485.098 288.726 484 288.234 483.034C287.751 482.068 287.06 481.306 286.16 480.747C285.27 480.188 284.219 479.909 283.007 479.909C281.671 479.909 280.516 480.241 279.541 480.903C278.575 481.557 277.831 482.409 277.311 483.46C276.79 484.511 276.529 485.638 276.529 486.841V488.773C276.529 490.42 276.814 491.817 277.382 492.963C277.959 494.099 278.76 494.966 279.782 495.562C280.805 496.15 281.993 496.443 283.348 496.443C284.228 496.443 285.024 496.32 285.734 496.074C286.454 495.818 287.074 495.439 287.595 494.938C288.116 494.426 288.518 493.792 288.802 493.034L292.041 493.943C291.7 495.042 291.127 496.008 290.322 496.841C289.517 497.665 288.523 498.309 287.339 498.773C286.155 499.227 284.825 499.455 283.348 499.455ZM310.89 507.182C310.322 507.182 309.815 507.134 309.37 507.04C308.925 506.955 308.617 506.869 308.447 506.784L309.299 503.83C310.114 504.038 310.833 504.114 311.458 504.057C312.083 504 312.637 503.721 313.12 503.219C313.613 502.726 314.063 501.926 314.47 500.818L315.095 499.114L307.027 477.182H310.663L316.686 494.568H316.913L322.936 477.182H326.572L317.311 502.182C316.894 503.309 316.378 504.241 315.762 504.98C315.147 505.728 314.432 506.282 313.617 506.642C312.813 507.002 311.903 507.182 310.89 507.182ZM339.079 499.455C337.109 499.455 335.381 498.986 333.894 498.048C332.417 497.111 331.262 495.799 330.429 494.114C329.605 492.428 329.193 490.458 329.193 488.205C329.193 485.932 329.605 483.948 330.429 482.253C331.262 480.558 332.417 479.241 333.894 478.304C335.381 477.366 337.109 476.898 339.079 476.898C341.049 476.898 342.772 477.366 344.25 478.304C345.736 479.241 346.892 480.558 347.715 482.253C348.549 483.948 348.965 485.932 348.965 488.205C348.965 490.458 348.549 492.428 347.715 494.114C346.892 495.799 345.736 497.111 344.25 498.048C342.772 498.986 341.049 499.455 339.079 499.455ZM339.079 496.443C340.575 496.443 341.806 496.06 342.772 495.293C343.738 494.526 344.453 493.517 344.917 492.267C345.381 491.017 345.613 489.663 345.613 488.205C345.613 486.746 345.381 485.387 344.917 484.128C344.453 482.868 343.738 481.85 342.772 481.074C341.806 480.297 340.575 479.909 339.079 479.909C337.583 479.909 336.352 480.297 335.386 481.074C334.42 481.85 333.705 482.868 333.241 484.128C332.777 485.387 332.545 486.746 332.545 488.205C332.545 489.663 332.777 491.017 333.241 492.267C333.705 493.517 334.42 494.526 335.386 495.293C336.352 496.06 337.583 496.443 339.079 496.443ZM367.833 490.08V477.182H371.185V499H367.833V495.307H367.605C367.094 496.415 366.299 497.357 365.219 498.134C364.139 498.901 362.776 499.284 361.128 499.284C359.764 499.284 358.552 498.986 357.492 498.389C356.431 497.783 355.598 496.874 354.992 495.662C354.386 494.44 354.083 492.902 354.083 491.045V477.182H357.435V490.818C357.435 492.409 357.88 493.678 358.77 494.625C359.67 495.572 360.816 496.045 362.208 496.045C363.041 496.045 363.889 495.832 364.75 495.406C365.622 494.98 366.351 494.327 366.938 493.446C367.534 492.565 367.833 491.443 367.833 490.08ZM377.325 499V477.182H380.564V480.477H380.791C381.189 479.398 381.908 478.522 382.95 477.849C383.992 477.177 385.166 476.841 386.473 476.841C386.719 476.841 387.027 476.846 387.396 476.855C387.765 476.865 388.045 476.879 388.234 476.898V480.307C388.12 480.278 387.86 480.236 387.453 480.179C387.055 480.113 386.634 480.08 386.189 480.08C385.128 480.08 384.181 480.302 383.348 480.747C382.524 481.183 381.87 481.789 381.387 482.565C380.914 483.332 380.677 484.208 380.677 485.193V499H377.325ZM403.912 499V469.909H414.083C416.109 469.909 417.781 470.259 419.097 470.96C420.413 471.652 421.393 472.584 422.037 473.759C422.681 474.923 423.003 476.216 423.003 477.636C423.003 478.886 422.781 479.919 422.336 480.733C421.9 481.547 421.322 482.191 420.603 482.665C419.892 483.138 419.121 483.489 418.287 483.716V484C419.177 484.057 420.072 484.369 420.972 484.938C421.872 485.506 422.624 486.32 423.23 487.381C423.836 488.441 424.139 489.739 424.139 491.273C424.139 492.731 423.808 494.043 423.145 495.207C422.482 496.372 421.436 497.295 420.006 497.977C418.576 498.659 416.715 499 414.424 499H403.912ZM407.435 495.875H414.424C416.725 495.875 418.358 495.43 419.324 494.54C420.3 493.64 420.787 492.551 420.787 491.273C420.787 490.288 420.536 489.379 420.034 488.545C419.532 487.703 418.818 487.03 417.889 486.528C416.961 486.017 415.863 485.761 414.594 485.761H407.435V495.875ZM407.435 482.693H413.969C415.03 482.693 415.986 482.485 416.838 482.068C417.7 481.652 418.382 481.064 418.884 480.307C419.395 479.549 419.651 478.659 419.651 477.636C419.651 476.358 419.206 475.274 418.316 474.384C417.425 473.484 416.014 473.034 414.083 473.034H407.435V482.693ZM443.223 490.08V477.182H446.576V499H443.223V495.307H442.996C442.485 496.415 441.689 497.357 440.61 498.134C439.53 498.901 438.166 499.284 436.519 499.284C435.155 499.284 433.943 498.986 432.882 498.389C431.822 497.783 430.988 496.874 430.382 495.662C429.776 494.44 429.473 492.902 429.473 491.045V477.182H432.826V490.818C432.826 492.409 433.271 493.678 434.161 494.625C435.06 495.572 436.206 496.045 437.598 496.045C438.432 496.045 439.279 495.832 440.141 495.406C441.012 494.98 441.741 494.327 442.328 493.446C442.925 492.565 443.223 491.443 443.223 490.08ZM468.17 482.068L465.159 482.92C464.969 482.419 464.69 481.931 464.321 481.457C463.961 480.974 463.468 480.577 462.843 480.264C462.218 479.952 461.418 479.795 460.443 479.795C459.108 479.795 457.995 480.103 457.105 480.719C456.224 481.325 455.784 482.097 455.784 483.034C455.784 483.867 456.087 484.526 456.693 485.009C457.299 485.491 458.246 485.894 459.534 486.216L462.772 487.011C464.723 487.485 466.177 488.209 467.133 489.185C468.09 490.151 468.568 491.396 468.568 492.92C468.568 494.17 468.208 495.288 467.488 496.273C466.778 497.258 465.784 498.034 464.505 498.602C463.227 499.17 461.74 499.455 460.045 499.455C457.82 499.455 455.978 498.972 454.519 498.006C453.061 497.04 452.138 495.629 451.75 493.773L454.931 492.977C455.234 494.152 455.807 495.032 456.65 495.619C457.502 496.206 458.615 496.5 459.988 496.5C461.551 496.5 462.791 496.169 463.71 495.506C464.638 494.833 465.102 494.028 465.102 493.091C465.102 492.333 464.837 491.699 464.306 491.188C463.776 490.667 462.962 490.278 461.863 490.023L458.227 489.17C456.229 488.697 454.761 487.963 453.823 486.969C452.895 485.965 452.431 484.71 452.431 483.205C452.431 481.973 452.777 480.884 453.468 479.938C454.169 478.991 455.121 478.247 456.323 477.707C457.536 477.168 458.909 476.898 460.443 476.898C462.602 476.898 464.297 477.371 465.528 478.318C466.769 479.265 467.649 480.515 468.17 482.068ZM473.614 499V477.182H476.966V499H473.614ZM475.318 473.545C474.665 473.545 474.102 473.323 473.628 472.878C473.164 472.433 472.932 471.898 472.932 471.273C472.932 470.648 473.164 470.113 473.628 469.668C474.102 469.223 474.665 469 475.318 469C475.972 469 476.531 469.223 476.995 469.668C477.468 470.113 477.705 470.648 477.705 471.273C477.705 471.898 477.468 472.433 476.995 472.878C476.531 473.323 475.972 473.545 475.318 473.545ZM486.458 485.875V499H483.106V477.182H486.345V480.591H486.629C487.14 479.483 487.917 478.593 488.958 477.92C490 477.239 491.345 476.898 492.992 476.898C494.47 476.898 495.762 477.201 496.87 477.807C497.978 478.403 498.84 479.312 499.456 480.534C500.071 481.746 500.379 483.28 500.379 485.136V499H497.027V485.364C497.027 483.65 496.581 482.314 495.691 481.358C494.801 480.392 493.58 479.909 492.027 479.909C490.956 479.909 490 480.141 489.157 480.605C488.324 481.069 487.666 481.746 487.183 482.636C486.7 483.527 486.458 484.606 486.458 485.875ZM515.652 499.455C513.55 499.455 511.737 498.991 510.212 498.062C508.697 497.125 507.527 495.818 506.703 494.142C505.889 492.456 505.482 490.496 505.482 488.261C505.482 486.027 505.889 484.057 506.703 482.352C507.527 480.638 508.673 479.303 510.141 478.347C511.618 477.381 513.342 476.898 515.311 476.898C516.448 476.898 517.57 477.087 518.678 477.466C519.786 477.845 520.794 478.46 521.703 479.312C522.613 480.155 523.337 481.273 523.877 482.665C524.416 484.057 524.686 485.771 524.686 487.807V489.227H507.868V486.33H521.277C521.277 485.098 521.031 484 520.539 483.034C520.056 482.068 519.364 481.306 518.465 480.747C517.575 480.188 516.523 479.909 515.311 479.909C513.976 479.909 512.821 480.241 511.845 480.903C510.88 481.557 510.136 482.409 509.615 483.46C509.095 484.511 508.834 485.638 508.834 486.841V488.773C508.834 490.42 509.118 491.817 509.686 492.963C510.264 494.099 511.064 494.966 512.087 495.562C513.11 496.15 514.298 496.443 515.652 496.443C516.533 496.443 517.328 496.32 518.039 496.074C518.758 495.818 519.379 495.439 519.899 494.938C520.42 494.426 520.823 493.792 521.107 493.034L524.345 493.943C524.005 495.042 523.432 496.008 522.627 496.841C521.822 497.665 520.827 498.309 519.644 498.773C518.46 499.227 517.13 499.455 515.652 499.455ZM545.24 482.068L542.229 482.92C542.04 482.419 541.76 481.931 541.391 481.457C541.031 480.974 540.539 480.577 539.914 480.264C539.289 479.952 538.488 479.795 537.513 479.795C536.178 479.795 535.065 480.103 534.175 480.719C533.294 481.325 532.854 482.097 532.854 483.034C532.854 483.867 533.157 484.526 533.763 485.009C534.369 485.491 535.316 485.894 536.604 486.216L539.843 487.011C541.793 487.485 543.247 488.209 544.203 489.185C545.16 490.151 545.638 491.396 545.638 492.92C545.638 494.17 545.278 495.288 544.559 496.273C543.848 497.258 542.854 498.034 541.576 498.602C540.297 499.17 538.81 499.455 537.115 499.455C534.89 499.455 533.048 498.972 531.59 498.006C530.131 497.04 529.208 495.629 528.82 493.773L532.002 492.977C532.305 494.152 532.878 495.032 533.72 495.619C534.573 496.206 535.685 496.5 537.059 496.5C538.621 496.5 539.862 496.169 540.78 495.506C541.708 494.833 542.172 494.028 542.172 493.091C542.172 492.333 541.907 491.699 541.377 491.188C540.846 490.667 540.032 490.278 538.934 490.023L535.297 489.17C533.299 488.697 531.831 487.963 530.894 486.969C529.966 485.965 529.502 484.71 529.502 483.205C529.502 481.973 529.847 480.884 530.539 479.938C531.239 478.991 532.191 478.247 533.394 477.707C534.606 477.168 535.979 476.898 537.513 476.898C539.672 476.898 541.367 477.371 542.598 478.318C543.839 479.265 544.72 480.515 545.24 482.068ZM566.139 482.068L563.127 482.92C562.938 482.419 562.659 481.931 562.289 481.457C561.93 480.974 561.437 480.577 560.812 480.264C560.187 479.952 559.387 479.795 558.412 479.795C557.076 479.795 555.964 480.103 555.073 480.719C554.193 481.325 553.752 482.097 553.752 483.034C553.752 483.867 554.055 484.526 554.662 485.009C555.268 485.491 556.215 485.894 557.502 486.216L560.741 487.011C562.692 487.485 564.145 488.209 565.102 489.185C566.058 490.151 566.537 491.396 566.537 492.92C566.537 494.17 566.177 495.288 565.457 496.273C564.747 497.258 563.752 498.034 562.474 498.602C561.196 499.17 559.709 499.455 558.014 499.455C555.788 499.455 553.947 498.972 552.488 498.006C551.03 497.04 550.107 495.629 549.718 493.773L552.9 492.977C553.203 494.152 553.776 495.032 554.619 495.619C555.471 496.206 556.584 496.5 557.957 496.5C559.519 496.5 560.76 496.169 561.679 495.506C562.607 494.833 563.071 494.028 563.071 493.091C563.071 492.333 562.805 491.699 562.275 491.188C561.745 490.667 560.93 490.278 559.832 490.023L556.196 489.17C554.197 488.697 552.73 487.963 551.792 486.969C550.864 485.965 550.4 484.71 550.4 483.205C550.4 481.973 550.746 480.884 551.437 479.938C552.138 478.991 553.09 478.247 554.292 477.707C555.504 477.168 556.877 476.898 558.412 476.898C560.571 476.898 562.266 477.371 563.497 478.318C564.737 479.265 565.618 480.515 566.139 482.068ZM587.776 499L581.128 477.182H584.651L589.367 493.886H589.594L594.253 477.182H597.833L602.435 493.83H602.662L607.378 477.182H610.901L604.253 499H600.958L596.185 482.239H595.844L591.071 499H587.776ZM615.333 499V477.182H618.685V499H615.333ZM617.037 473.545C616.384 473.545 615.82 473.323 615.347 472.878C614.883 472.433 614.651 471.898 614.651 471.273C614.651 470.648 614.883 470.113 615.347 469.668C615.82 469.223 616.384 469 617.037 469C617.691 469 618.249 469.223 618.713 469.668C619.187 470.113 619.424 470.648 619.424 471.273C619.424 471.898 619.187 472.433 618.713 472.878C618.249 473.323 617.691 473.545 617.037 473.545ZM634.314 477.182V480.023H623.007V477.182H634.314ZM626.302 471.955H629.654V492.75C629.654 493.697 629.792 494.407 630.066 494.881C630.35 495.345 630.71 495.657 631.146 495.818C631.591 495.97 632.06 496.045 632.552 496.045C632.921 496.045 633.224 496.027 633.461 495.989C633.698 495.941 633.887 495.903 634.029 495.875L634.711 498.886C634.484 498.972 634.167 499.057 633.76 499.142C633.352 499.237 632.836 499.284 632.211 499.284C631.264 499.284 630.336 499.08 629.427 498.673C628.528 498.266 627.779 497.646 627.183 496.812C626.596 495.979 626.302 494.928 626.302 493.659V471.955ZM643.177 485.875V499H639.825V469.909H643.177V480.591H643.461C643.973 479.464 644.74 478.569 645.762 477.906C646.795 477.234 648.168 476.898 649.882 476.898C651.368 476.898 652.671 477.196 653.788 477.793C654.905 478.38 655.772 479.284 656.387 480.506C657.012 481.718 657.325 483.261 657.325 485.136V499H653.973V485.364C653.973 483.631 653.523 482.291 652.623 481.344C651.733 480.387 650.497 479.909 648.916 479.909C647.817 479.909 646.832 480.141 645.961 480.605C645.099 481.069 644.418 481.746 643.916 482.636C643.423 483.527 643.177 484.606 643.177 485.875ZM688.458 490.08V477.182H691.81V499H688.458V495.307H688.23C687.719 496.415 686.924 497.357 685.844 498.134C684.764 498.901 683.401 499.284 681.753 499.284C680.389 499.284 679.177 498.986 678.117 498.389C677.056 497.783 676.223 496.874 675.617 495.662C675.011 494.44 674.708 492.902 674.708 491.045V477.182H678.06V490.818C678.06 492.409 678.505 493.678 679.395 494.625C680.295 495.572 681.441 496.045 682.833 496.045C683.666 496.045 684.514 495.832 685.375 495.406C686.247 494.98 686.976 494.327 687.563 493.446C688.159 492.565 688.458 491.443 688.458 490.08ZM713.404 482.068L710.393 482.92C710.204 482.419 709.924 481.931 709.555 481.457C709.195 480.974 708.703 480.577 708.078 480.264C707.453 479.952 706.653 479.795 705.677 479.795C704.342 479.795 703.229 480.103 702.339 480.719C701.458 481.325 701.018 482.097 701.018 483.034C701.018 483.867 701.321 484.526 701.927 485.009C702.533 485.491 703.48 485.894 704.768 486.216L708.007 487.011C709.957 487.485 711.411 488.209 712.367 489.185C713.324 490.151 713.802 491.396 713.802 492.92C713.802 494.17 713.442 495.288 712.723 496.273C712.012 497.258 711.018 498.034 709.74 498.602C708.461 499.17 706.974 499.455 705.279 499.455C703.054 499.455 701.212 498.972 699.754 498.006C698.296 497.04 697.372 495.629 696.984 493.773L700.166 492.977C700.469 494.152 701.042 495.032 701.885 495.619C702.737 496.206 703.849 496.5 705.223 496.5C706.785 496.5 708.026 496.169 708.944 495.506C709.872 494.833 710.336 494.028 710.336 493.091C710.336 492.333 710.071 491.699 709.541 491.188C709.01 490.667 708.196 490.278 707.098 490.023L703.461 489.17C701.463 488.697 699.995 487.963 699.058 486.969C698.13 485.965 697.666 484.71 697.666 483.205C697.666 481.973 698.011 480.884 698.703 479.938C699.403 478.991 700.355 478.247 701.558 477.707C702.77 477.168 704.143 476.898 705.677 476.898C707.836 476.898 709.531 477.371 710.762 478.318C712.003 479.265 712.884 480.515 713.404 482.068Z" fill="#565656"/>
<defs>
<filter id="filter0_f_23_100" x="111.428" y="277.108" width="465.96" height="514.417" filterUnits="userSpaceOnUse" color-interpolation-filters="sRGB">
<feFlood flood-opacity="0" result="BackgroundImageFix"/>
<feBlend mode="normal" in="SourceGraphic" in2="BackgroundImageFix" result="shape"/>
<feGaussianBlur stdDeviation="10" result="effect1_foregroundBlur_23_100"/>
</filter>
<filter id="filter1_f_23_100" x="203.578" y="203.285" width="465.96" height="514.417" filterUnits="userSpaceOnUse" color-interpolation-filters="sRGB">
<feFlood flood-opacity="0" result="BackgroundImageFix"/>
<feBlend mode="normal" in="SourceGraphic" in2="BackgroundImageFix" result="shape"/>
<feGaussianBlur stdDeviation="10" result="effect1_foregroundBlur_23_100"/>
</filter>
<filter id="filter2_f_23_100" x="295.728" y="129.462" width="465.96" height="514.417" filterUnits="userSpaceOnUse" color-interpolation-filters="sRGB">
<feFlood flood-opacity="0" result="BackgroundImageFix"/>
<feBlend mode="normal" in="SourceGraphic" in2="BackgroundImageFix" result="shape"/>
<feGaussianBlur stdDeviation="10" result="effect1_foregroundBlur_23_100"/>
</filter>
<linearGradient id="paint0_linear_23_100" x1="2.19837e-07" y1="63.1885" x2="469.84" y2="96.6721" gradientUnits="userSpaceOnUse">
<stop stop-color="#D1D5DB"/>
<stop offset="1" stop-color="white"/>
</linearGradient>
<linearGradient id="paint1_linear_23_100" x1="2.19837e-07" y1="63.1885" x2="469.84" y2="96.6721" gradientUnits="userSpaceOnUse">
<stop stop-color="#D1D5DB"/>
<stop offset="1" stop-color="white"/>
</linearGradient>
<linearGradient id="paint2_linear_23_100" x1="2.19837e-07" y1="63.1885" x2="469.84" y2="96.6721" gradientUnits="userSpaceOnUse">
<stop stop-color="#D1D5DB"/>
<stop offset="1" stop-color="white"/>
</linearGradient>
<linearGradient id="paint3_linear_23_100" x1="2.19837e-07" y1="63.1885" x2="469.84" y2="96.6721" gradientUnits="userSpaceOnUse">
<stop stop-color="#D1D5DB"/>
<stop offset="1" stop-color="white"/>
</linearGradient>
<linearGradient id="paint4_linear_23_100" x1="2.19837e-07" y1="63.1885" x2="469.84" y2="96.6721" gradientUnits="userSpaceOnUse">
<stop stop-color="#D1D5DB"/>
<stop offset="1" stop-color="white"/>
</linearGradient>
<linearGradient id="paint5_linear_23_100" x1="2.19837e-07" y1="63.1885" x2="469.84" y2="96.6721" gradientUnits="userSpaceOnUse">
<stop stop-color="#D1D5DB"/>
<stop offset="1" stop-color="white"/>
</linearGradient>
</defs>
</svg>
