<svg width="64" height="64" viewBox="0 0 64 64" fill="none" xmlns="http://www.w3.org/2000/svg">
<path d="M32.2861 54.1098C20.2332 54.1098 10.4623 44.339 10.4623 32.2861C10.4623 20.2332 20.2332 10.4623 32.2861 10.4623C36.9005 10.4623 41.1804 11.8944 44.7056 14.3384C45.9721 15.2165 47.2015 16.2196 47.9387 17.3461C48.347 17.9699 48.6335 18.1865 48.6335 19.3308C48.6335 19.9718 48.6335 20.3116 48.2248 20.9246L44.6313 24.5816L38.1024 31.2078C38.1477 31.5062 38.1711 31.8116 38.1711 32.1226C38.1711 35.4631 35.4631 38.1711 32.1226 38.1711C28.7821 38.1711 26.0741 35.4631 26.0741 32.1226C26.0741 28.7821 28.7821 26.0741 32.1226 26.0741C32.4449 26.0741 32.7612 26.0993 33.0699 26.1478L39.5452 19.5759C37.3797 18.3032 34.8568 17.5734 32.1635 17.5734C24.1056 17.5734 17.5734 24.1056 17.5734 32.1635C17.5734 40.2213 24.1056 46.7535 32.1635 46.7535C35.5977 46.7535 38.3067 45.9207 41.2472 43.5815C42.3221 42.7264 42.7517 42.0546 43.7156 41.0762C47.7495 36.9821 54.0451 30.5926 54.0451 30.5926L62.4326 22.0799C58.2574 9.26275 46.2104 0 32 0C14.3269 0 0 14.3269 0 32C0 49.6731 14.3269 64 32 64C49.6731 64 64 49.6731 64 32C64 31.5909 63.9923 31.1836 63.9771 30.7783L50.1834 44.7778C50.1834 44.7778 47.3638 48.3235 45.0427 49.9952C40.7952 53.0545 37.0486 54.1098 32.2861 54.1098Z" fill="url(#paint0_linear_98_4811)"/>
<defs>
<linearGradient id="paint0_linear_98_4811" x1="53" y1="7.5" x2="7.5" y2="57.5" gradientUnits="userSpaceOnUse">
<stop stop-color="#3EA900"/>
<stop offset="0.498727" stop-color="#236EB4"/>
<stop offset="1" stop-color="#226DB4"/>
</linearGradient>
</defs>
</svg>
