<svg width="554" height="89" viewBox="0 0 554 89" fill="none" xmlns="http://www.w3.org/2000/svg">
<path d="M126.835 32V2.90909H147.801V9.27273H134.733V14.2727H146.721V20.6364H134.733V25.6364H147.744V32H126.835ZM159.672 2.90909V32H151.831V2.90909H159.672ZM163.667 32V10.1818H171.508V32H163.667ZM167.588 7.90909C166.527 7.90909 165.618 7.55871 164.86 6.85795C164.103 6.1572 163.724 5.31439 163.724 4.32955C163.724 3.3447 164.103 2.50189 164.86 1.80114C165.618 1.10038 166.527 0.75 167.588 0.75C168.658 0.75 169.567 1.10038 170.315 1.80114C171.072 2.50189 171.451 3.3447 171.451 4.32955C171.451 5.31439 171.072 6.1572 170.315 6.85795C169.567 7.55871 168.658 7.90909 167.588 7.90909ZM188.514 10.1818V15.8636H174.139V10.1818H188.514ZM176.924 4.95455H184.764V24.983C184.764 25.286 184.817 25.5417 184.921 25.75C185.025 25.9489 185.186 26.1004 185.404 26.2045C185.622 26.2992 185.901 26.3466 186.242 26.3466C186.479 26.3466 186.753 26.3182 187.066 26.2614C187.388 26.2045 187.624 26.1572 187.776 26.1193L188.912 31.6307C188.562 31.7348 188.06 31.8627 187.407 32.0142C186.763 32.1657 185.996 32.2652 185.105 32.3125C183.306 32.4072 181.796 32.2225 180.574 31.7585C179.353 31.285 178.434 30.5417 177.818 29.5284C177.203 28.5152 176.905 27.2462 176.924 25.7216V4.95455ZM201.934 32.3977C199.605 32.3977 197.597 31.9527 195.912 31.0625C194.235 30.1629 192.943 28.875 192.034 27.1989C191.134 25.5133 190.684 23.4962 190.684 21.1477C190.684 18.8939 191.139 16.9242 192.048 15.2386C192.957 13.553 194.24 12.2415 195.897 11.304C197.555 10.3665 199.51 9.89773 201.764 9.89773C203.412 9.89773 204.903 10.1534 206.238 10.6648C207.573 11.1761 208.715 11.9195 209.662 12.8949C210.608 13.8608 211.338 15.035 211.849 16.4176C212.36 17.8002 212.616 19.358 212.616 21.0909V22.9091H193.127V18.5909H205.4C205.391 17.9659 205.23 17.4167 204.917 16.9432C204.614 16.4602 204.202 16.0862 203.681 15.821C203.17 15.5464 202.588 15.4091 201.934 15.4091C201.3 15.4091 200.717 15.5464 200.187 15.821C199.657 16.0862 199.231 16.4555 198.909 16.929C198.596 17.4025 198.43 17.9564 198.412 18.5909V23.25C198.412 23.9508 198.558 24.5758 198.852 25.125C199.145 25.6742 199.567 26.1051 200.116 26.4176C200.665 26.7301 201.328 26.8864 202.105 26.8864C202.644 26.8864 203.137 26.8106 203.582 26.6591C204.037 26.5076 204.425 26.2898 204.747 26.0057C205.069 25.7121 205.305 25.3617 205.457 24.9545H212.616C212.37 26.4697 211.787 27.786 210.869 28.9034C209.95 30.0114 208.733 30.8731 207.218 31.4886C205.713 32.0947 203.951 32.3977 201.934 32.3977ZM222.875 9.27273V2.90909H248.159V9.27273H239.409V32H231.625V9.27273H222.875ZM258.536 32.3977C256.206 32.3977 254.199 31.9527 252.513 31.0625C250.837 30.1629 249.544 28.875 248.635 27.1989C247.736 25.5133 247.286 23.4962 247.286 21.1477C247.286 18.8939 247.74 16.9242 248.649 15.2386C249.559 13.553 250.842 12.2415 252.499 11.304C254.156 10.3665 256.112 9.89773 258.365 9.89773C260.013 9.89773 261.505 10.1534 262.84 10.6648C264.175 11.1761 265.316 11.9195 266.263 12.8949C267.21 13.8608 267.939 15.035 268.451 16.4176C268.962 17.8002 269.218 19.358 269.218 21.0909V22.9091H249.729V18.5909H262.002C261.992 17.9659 261.831 17.4167 261.519 16.9432C261.216 16.4602 260.804 16.0862 260.283 15.821C259.772 15.5464 259.189 15.4091 258.536 15.4091C257.901 15.4091 257.319 15.5464 256.789 15.821C256.258 16.0862 255.832 16.4555 255.51 16.929C255.198 17.4025 255.032 17.9564 255.013 18.5909V23.25C255.013 23.9508 255.16 24.5758 255.453 25.125C255.747 25.6742 256.168 26.1051 256.718 26.4176C257.267 26.7301 257.93 26.8864 258.706 26.8864C259.246 26.8864 259.738 26.8106 260.184 26.6591C260.638 26.5076 261.026 26.2898 261.348 26.0057C261.67 25.7121 261.907 25.3617 262.059 24.9545H269.218C268.971 26.4697 268.389 27.786 267.47 28.9034C266.552 30.0114 265.335 30.8731 263.82 31.4886C262.314 32.0947 260.553 32.3977 258.536 32.3977ZM282.929 32.3977C280.561 32.3977 278.535 31.929 276.849 30.9915C275.163 30.0445 273.871 28.7282 272.971 27.0426C272.072 25.3475 271.622 23.3826 271.622 21.1477C271.622 18.9129 272.072 16.9527 272.971 15.267C273.871 13.572 275.163 12.2557 276.849 11.3182C278.535 10.3712 280.561 9.89773 282.929 9.89773C285.069 9.89773 286.92 10.286 288.483 11.0625C290.055 11.8295 291.271 12.9186 292.133 14.3295C292.995 15.7311 293.43 17.3788 293.44 19.2727H286.167C286.063 18.1269 285.732 17.2557 285.173 16.6591C284.624 16.053 283.913 15.75 283.042 15.75C282.36 15.75 281.764 15.9489 281.252 16.3466C280.741 16.7348 280.343 17.3267 280.059 18.1222C279.775 18.9081 279.633 19.8977 279.633 21.0909C279.633 22.2841 279.775 23.2784 280.059 24.0739C280.343 24.8598 280.741 25.4517 281.252 25.8494C281.764 26.2377 282.36 26.4318 283.042 26.4318C283.62 26.4318 284.131 26.2992 284.576 26.0341C285.021 25.7595 285.381 25.3617 285.656 24.8409C285.94 24.3106 286.11 23.6667 286.167 22.9091H293.44C293.412 24.8314 292.971 26.5076 292.119 27.9375C291.267 29.358 290.059 30.4564 288.497 31.233C286.944 32.0095 285.088 32.3977 282.929 32.3977ZM304.516 19.7273V32H296.675V2.90909H304.232V14.3295H304.459C304.952 12.9375 305.771 11.8532 306.916 11.0767C308.062 10.2907 309.44 9.89773 311.05 9.89773C312.594 9.89773 313.934 10.2481 315.07 10.9489C316.216 11.6496 317.101 12.6155 317.726 13.8466C318.361 15.0777 318.673 16.4886 318.664 18.0795V32H310.823V19.7273C310.832 18.6477 310.562 17.8002 310.013 17.1847C309.473 16.5691 308.702 16.2614 307.698 16.2614C307.063 16.2614 306.505 16.4034 306.022 16.6875C305.548 16.9621 305.179 17.3598 304.914 17.8807C304.658 18.392 304.525 19.0076 304.516 19.7273ZM357.549 13.8182H349.537C349.48 13.1553 349.329 12.554 349.083 12.0142C348.846 11.4744 348.514 11.0104 348.088 10.6222C347.672 10.2244 347.165 9.9214 346.568 9.71307C345.972 9.49526 345.295 9.38636 344.537 9.38636C343.211 9.38636 342.089 9.70833 341.171 10.3523C340.262 10.9962 339.57 11.9195 339.097 13.1222C338.633 14.3248 338.401 15.7689 338.401 17.4545C338.401 19.2348 338.638 20.7263 339.111 21.929C339.594 23.1222 340.29 24.0218 341.199 24.6278C342.108 25.2244 343.202 25.5227 344.48 25.5227C345.21 25.5227 345.863 25.4328 346.441 25.2528C347.018 25.0634 347.52 24.7936 347.946 24.4432C348.372 24.0928 348.718 23.6714 348.983 23.179C349.258 22.6771 349.443 22.1136 349.537 21.4886L357.549 21.5455C357.454 22.7765 357.108 24.0312 356.512 25.3097C355.915 26.5786 355.068 27.7528 353.969 28.8324C352.88 29.9025 351.531 30.7642 349.921 31.4176C348.311 32.071 346.441 32.3977 344.31 32.3977C341.639 32.3977 339.244 31.8248 337.122 30.679C335.011 29.5331 333.339 27.8475 332.108 25.6222C330.887 23.3968 330.276 20.6742 330.276 17.4545C330.276 14.2159 330.901 11.4886 332.151 9.27273C333.401 7.04735 335.086 5.36648 337.208 4.23011C339.329 3.08428 341.696 2.51136 344.31 2.51136C346.147 2.51136 347.837 2.76231 349.381 3.2642C350.925 3.7661 352.279 4.5 353.443 5.46591C354.608 6.42235 355.546 7.60133 356.256 9.00284C356.966 10.4044 357.397 12.0095 357.549 13.8182ZM371.757 32.3977C369.389 32.3977 367.363 31.929 365.677 30.9915C363.992 30.0445 362.699 28.7282 361.799 27.0426C360.9 25.3475 360.45 23.3826 360.45 21.1477C360.45 18.9129 360.9 16.9527 361.799 15.267C362.699 13.572 363.992 12.2557 365.677 11.3182C367.363 10.3712 369.389 9.89773 371.757 9.89773C374.124 9.89773 376.151 10.3712 377.836 11.3182C379.522 12.2557 380.814 13.572 381.714 15.267C382.614 16.9527 383.064 18.9129 383.064 21.1477C383.064 23.3826 382.614 25.3475 381.714 27.0426C380.814 28.7282 379.522 30.0445 377.836 30.9915C376.151 31.929 374.124 32.3977 371.757 32.3977ZM371.814 26.6023C372.476 26.6023 373.049 26.3797 373.532 25.9347C374.015 25.4896 374.389 24.8551 374.654 24.0312C374.92 23.2074 375.052 22.2273 375.052 21.0909C375.052 19.9451 374.92 18.965 374.654 18.1506C374.389 17.3267 374.015 16.6922 373.532 16.2472C373.049 15.8021 372.476 15.5795 371.814 15.5795C371.113 15.5795 370.511 15.8021 370.01 16.2472C369.508 16.6922 369.124 17.3267 368.859 18.1506C368.594 18.965 368.461 19.9451 368.461 21.0909C368.461 22.2273 368.594 23.2074 368.859 24.0312C369.124 24.8551 369.508 25.4896 370.01 25.9347C370.511 26.3797 371.113 26.6023 371.814 26.6023ZM386.245 32V10.1818H393.859V14.3295H394.086C394.484 12.7955 395.114 11.6733 395.975 10.9631C396.847 10.2528 397.865 9.89773 399.029 9.89773C399.37 9.89773 399.706 9.92614 400.038 9.98295C400.379 10.0303 400.706 10.1013 401.018 10.196V16.8864C400.63 16.7538 400.152 16.6544 399.583 16.5881C399.015 16.5218 398.528 16.4886 398.12 16.4886C397.353 16.4886 396.662 16.6638 396.046 17.0142C395.44 17.3551 394.962 17.8381 394.612 18.4631C394.261 19.0786 394.086 19.803 394.086 20.6364V32H386.245ZM403.589 40.1818V10.1818H411.373V13.9886H411.544C411.828 13.25 412.244 12.5729 412.794 11.9574C413.343 11.3324 414.025 10.8352 414.839 10.4659C415.653 10.0871 416.6 9.89773 417.68 9.89773C419.119 9.89773 420.488 10.2812 421.785 11.0483C423.092 11.8153 424.153 13.0227 424.967 14.6705C425.791 16.3182 426.203 18.4583 426.203 21.0909C426.203 23.6098 425.81 25.6979 425.024 27.3551C424.247 29.0123 423.206 30.2481 421.899 31.0625C420.601 31.8769 419.176 32.2841 417.623 32.2841C416.6 32.2841 415.687 32.1184 414.882 31.7869C414.086 31.446 413.404 30.9867 412.836 30.4091C412.278 29.822 411.847 29.1591 411.544 28.4205H411.43V40.1818H403.589ZM411.26 21.0909C411.26 22.1515 411.397 23.0701 411.671 23.8466C411.956 24.6136 412.353 25.2102 412.865 25.6364C413.385 26.053 414.006 26.2614 414.725 26.2614C415.445 26.2614 416.056 26.0578 416.558 25.6506C417.069 25.2339 417.457 24.642 417.723 23.875C417.997 23.0985 418.135 22.1705 418.135 21.0909C418.135 20.0114 417.997 19.0881 417.723 18.321C417.457 17.5445 417.069 16.9527 416.558 16.5455C416.056 16.1288 415.445 15.9205 414.725 15.9205C414.006 15.9205 413.385 16.1288 412.865 16.5455C412.353 16.9527 411.956 17.5445 411.671 18.321C411.397 19.0881 411.26 20.0114 411.26 21.0909Z" fill="#009CDC"/>
<path d="M0.201286 80V50.9091H17.7581V54.0341H3.72401V63.8636H16.849V66.9886H3.72401V76.875H17.9854V80H0.201286ZM27.0053 50.9091V80H23.653V50.9091H27.0053ZM42.2929 80.4545C40.1906 80.4545 38.3772 79.9905 36.8526 79.0625C35.3374 78.125 34.1679 76.8182 33.344 75.142C32.5296 73.4564 32.1225 71.4962 32.1225 69.2614C32.1225 67.0265 32.5296 65.0568 33.344 63.3523C34.1679 61.6383 35.3137 60.303 36.7815 59.3466C38.2588 58.3807 39.9823 57.8977 41.952 57.8977C43.0884 57.8977 44.2105 58.0871 45.3185 58.4659C46.4264 58.8447 47.435 59.4602 48.344 60.3125C49.2531 61.1553 49.9776 62.2727 50.5173 63.6648C51.0571 65.0568 51.327 66.7708 51.327 68.8068V70.2273H34.5088V67.3295H47.9179C47.9179 66.0985 47.6717 65 47.1793 64.0341C46.6963 63.0682 46.005 62.3059 45.1054 61.7472C44.2153 61.1884 43.1641 60.9091 41.952 60.9091C40.6168 60.9091 39.4615 61.2405 38.4861 61.9034C37.5202 62.5568 36.7768 63.4091 36.256 64.4602C35.7351 65.5114 35.4747 66.6383 35.4747 67.8409V69.7727C35.4747 71.4205 35.7588 72.8172 36.327 73.9631C36.9046 75.0994 37.7048 75.9659 38.7276 76.5625C39.7503 77.1496 40.9387 77.4432 42.2929 77.4432C43.1736 77.4432 43.969 77.3201 44.6793 77.0739C45.399 76.8182 46.0192 76.4394 46.5401 75.9375C47.0609 75.4261 47.4634 74.7917 47.7475 74.0341L50.9861 74.9432C50.6452 76.0417 50.0723 77.0076 49.2673 77.8409C48.4624 78.6648 47.4681 79.3087 46.2844 79.7727C45.1007 80.2273 43.7702 80.4545 42.2929 80.4545ZM73.6033 58.1818L65.5351 80H62.126L54.0578 58.1818H57.6942L63.7169 75.5682H63.9442L69.9669 58.1818H73.6033ZM83.7844 80.5114C82.4018 80.5114 81.1471 80.2509 80.0202 79.7301C78.8933 79.1998 77.9984 78.4375 77.3355 77.4432C76.6726 76.4394 76.3412 75.2273 76.3412 73.8068C76.3412 72.5568 76.5874 71.5436 77.0798 70.767C77.5723 69.9811 78.2304 69.3655 79.0543 68.9205C79.8781 68.4754 80.7872 68.1439 81.7815 67.9261C82.7853 67.6989 83.7939 67.5189 84.8071 67.3864C86.1329 67.2159 87.2077 67.0881 88.0315 67.0028C88.8649 66.9081 89.4709 66.7519 89.8497 66.5341C90.238 66.3163 90.4321 65.9375 90.4321 65.3977V65.2841C90.4321 63.8826 90.0486 62.7936 89.2815 62.017C88.524 61.2405 87.3734 60.8523 85.8298 60.8523C84.2295 60.8523 82.9747 61.2027 82.0656 61.9034C81.1565 62.6042 80.5173 63.3523 80.148 64.1477L76.9662 63.0114C77.5344 61.6856 78.292 60.6534 79.2389 59.9148C80.1954 59.1667 81.237 58.6458 82.3639 58.3523C83.5003 58.0492 84.6177 57.8977 85.7162 57.8977C86.417 57.8977 87.2219 57.983 88.131 58.1534C89.0495 58.3144 89.935 58.6506 90.7872 59.1619C91.649 59.6733 92.3639 60.4451 92.9321 61.4773C93.5003 62.5095 93.7844 63.892 93.7844 65.625V80H90.4321V77.0455H90.2617C90.0344 77.5189 89.6556 78.0256 89.1253 78.5653C88.595 79.1051 87.8895 79.5644 87.0088 79.9432C86.1281 80.322 85.0533 80.5114 83.7844 80.5114ZM84.2957 77.5C85.6215 77.5 86.7389 77.2396 87.648 76.7188C88.5666 76.1979 89.2579 75.5256 89.7219 74.7017C90.1954 73.8778 90.4321 73.0114 90.4321 72.1023V69.0341C90.2901 69.2045 89.9776 69.3608 89.4946 69.5028C89.0211 69.6354 88.4719 69.7538 87.8469 69.858C87.2314 69.9527 86.63 70.0379 86.0429 70.1136C85.4653 70.1799 84.9965 70.2367 84.6367 70.2841C83.7654 70.3977 82.951 70.5824 82.1935 70.8381C81.4454 71.0843 80.8393 71.4583 80.3753 71.9602C79.9207 72.4527 79.6935 73.125 79.6935 73.9773C79.6935 75.142 80.1243 76.0227 80.9861 76.6193C81.8573 77.2064 82.9605 77.5 84.2957 77.5ZM109.392 58.1818V61.0227H98.0848V58.1818H109.392ZM101.38 52.9545H104.733V73.75C104.733 74.697 104.87 75.4072 105.144 75.8807C105.429 76.3447 105.788 76.6572 106.224 76.8182C106.669 76.9697 107.138 77.0455 107.63 77.0455C108 77.0455 108.303 77.0265 108.539 76.9886C108.776 76.9413 108.965 76.9034 109.108 76.875L109.789 79.8864C109.562 79.9716 109.245 80.0568 108.838 80.142C108.43 80.2367 107.914 80.2841 107.289 80.2841C106.342 80.2841 105.414 80.0805 104.505 79.6733C103.606 79.2661 102.858 78.6458 102.261 77.8125C101.674 76.9792 101.38 75.928 101.38 74.6591V52.9545ZM123.348 80.4545C121.245 80.4545 119.432 79.9905 117.907 79.0625C116.392 78.125 115.223 76.8182 114.399 75.142C113.584 73.4564 113.177 71.4962 113.177 69.2614C113.177 67.0265 113.584 65.0568 114.399 63.3523C115.223 61.6383 116.368 60.303 117.836 59.3466C119.314 58.3807 121.037 57.8977 123.007 57.8977C124.143 57.8977 125.265 58.0871 126.373 58.4659C127.481 58.8447 128.49 59.4602 129.399 60.3125C130.308 61.1553 131.032 62.2727 131.572 63.6648C132.112 65.0568 132.382 66.7708 132.382 68.8068V70.2273H115.564V67.3295H128.973C128.973 66.0985 128.726 65 128.234 64.0341C127.751 63.0682 127.06 62.3059 126.16 61.7472C125.27 61.1884 124.219 60.9091 123.007 60.9091C121.671 60.9091 120.516 61.2405 119.541 61.9034C118.575 62.5568 117.831 63.4091 117.311 64.4602C116.79 65.5114 116.529 66.6383 116.529 67.8409V69.7727C116.529 71.4205 116.814 72.8172 117.382 73.9631C117.959 75.0994 118.76 75.9659 119.782 76.5625C120.805 77.1496 121.993 77.4432 123.348 77.4432C124.228 77.4432 125.024 77.3201 125.734 77.0739C126.454 76.8182 127.074 76.4394 127.595 75.9375C128.116 75.4261 128.518 74.7917 128.802 74.0341L132.041 74.9432C131.7 76.0417 131.127 77.0076 130.322 77.8409C129.517 78.6648 128.523 79.3087 127.339 79.7727C126.155 80.2273 124.825 80.4545 123.348 80.4545ZM150.89 88.1818C150.322 88.1818 149.815 88.1345 149.37 88.0398C148.925 87.9545 148.617 87.8693 148.447 87.7841L149.299 84.8295C150.114 85.0379 150.833 85.1136 151.458 85.0568C152.083 85 152.637 84.7206 153.12 84.2188C153.613 83.7263 154.063 82.9261 154.47 81.8182L155.095 80.1136L147.027 58.1818H150.663L156.686 75.5682H156.913L162.936 58.1818H166.572L157.311 83.1818C156.894 84.3087 156.378 85.2415 155.762 85.9801C155.147 86.7282 154.432 87.2822 153.617 87.642C152.813 88.0019 151.903 88.1818 150.89 88.1818ZM179.079 80.4545C177.109 80.4545 175.381 79.9858 173.894 79.0483C172.417 78.1108 171.262 76.7992 170.429 75.1136C169.605 73.428 169.193 71.4583 169.193 69.2045C169.193 66.9318 169.605 64.9479 170.429 63.2528C171.262 61.5578 172.417 60.2415 173.894 59.304C175.381 58.3665 177.109 57.8977 179.079 57.8977C181.049 57.8977 182.772 58.3665 184.25 59.304C185.736 60.2415 186.892 61.5578 187.715 63.2528C188.549 64.9479 188.965 66.9318 188.965 69.2045C188.965 71.4583 188.549 73.428 187.715 75.1136C186.892 76.7992 185.736 78.1108 184.25 79.0483C182.772 79.9858 181.049 80.4545 179.079 80.4545ZM179.079 77.4432C180.575 77.4432 181.806 77.0597 182.772 76.2926C183.738 75.5256 184.453 74.517 184.917 73.267C185.381 72.017 185.613 70.6629 185.613 69.2045C185.613 67.7462 185.381 66.3873 184.917 65.1278C184.453 63.8684 183.738 62.8504 182.772 62.0739C181.806 61.2973 180.575 60.9091 179.079 60.9091C177.583 60.9091 176.352 61.2973 175.386 62.0739C174.42 62.8504 173.705 63.8684 173.241 65.1278C172.777 66.3873 172.545 67.7462 172.545 69.2045C172.545 70.6629 172.777 72.017 173.241 73.267C173.705 74.517 174.42 75.5256 175.386 76.2926C176.352 77.0597 177.583 77.4432 179.079 77.4432ZM207.833 71.0795V58.1818H211.185V80H207.833V76.3068H207.605C207.094 77.4148 206.299 78.357 205.219 79.1335C204.139 79.9006 202.776 80.2841 201.128 80.2841C199.764 80.2841 198.552 79.9858 197.492 79.3892C196.431 78.7831 195.598 77.8741 194.992 76.6619C194.386 75.4403 194.083 73.9015 194.083 72.0455V58.1818H197.435V71.8182C197.435 73.4091 197.88 74.678 198.77 75.625C199.67 76.572 200.816 77.0455 202.208 77.0455C203.041 77.0455 203.889 76.8324 204.75 76.4062C205.622 75.9801 206.351 75.3267 206.938 74.446C207.534 73.5653 207.833 72.4432 207.833 71.0795ZM217.325 80V58.1818H220.564V61.4773H220.791C221.189 60.3977 221.908 59.5218 222.95 58.8494C223.992 58.1771 225.166 57.8409 226.473 57.8409C226.719 57.8409 227.027 57.8456 227.396 57.8551C227.765 57.8646 228.045 57.8788 228.234 57.8977V61.3068C228.12 61.2784 227.86 61.2358 227.453 61.179C227.055 61.1127 226.634 61.0795 226.189 61.0795C225.128 61.0795 224.181 61.3021 223.348 61.7472C222.524 62.1828 221.87 62.7888 221.387 63.5653C220.914 64.3324 220.677 65.2083 220.677 66.1932V80H217.325ZM243.912 80V50.9091H254.083C256.109 50.9091 257.781 51.2595 259.097 51.9602C260.413 52.6515 261.393 53.5843 262.037 54.7585C262.681 55.9233 263.003 57.2159 263.003 58.6364C263.003 59.8864 262.781 60.9186 262.336 61.733C261.9 62.5473 261.322 63.1913 260.603 63.6648C259.892 64.1383 259.121 64.4886 258.287 64.7159V65C259.177 65.0568 260.072 65.3693 260.972 65.9375C261.872 66.5057 262.624 67.3201 263.23 68.3807C263.836 69.4413 264.139 70.7386 264.139 72.2727C264.139 73.7311 263.808 75.0426 263.145 76.2074C262.482 77.3722 261.436 78.2955 260.006 78.9773C258.576 79.6591 256.715 80 254.424 80H243.912ZM247.435 76.875H254.424C256.725 76.875 258.358 76.4299 259.324 75.5398C260.3 74.6402 260.787 73.5511 260.787 72.2727C260.787 71.2879 260.536 70.3788 260.034 69.5455C259.532 68.7027 258.818 68.0303 257.889 67.5284C256.961 67.017 255.863 66.7614 254.594 66.7614H247.435V76.875ZM247.435 63.6932H253.969C255.03 63.6932 255.986 63.4848 256.838 63.0682C257.7 62.6515 258.382 62.0644 258.884 61.3068C259.395 60.5492 259.651 59.6591 259.651 58.6364C259.651 57.358 259.206 56.2737 258.316 55.3835C257.425 54.4839 256.014 54.0341 254.083 54.0341H247.435V63.6932ZM283.223 71.0795V58.1818H286.576V80H283.223V76.3068H282.996C282.485 77.4148 281.689 78.357 280.61 79.1335C279.53 79.9006 278.166 80.2841 276.519 80.2841C275.155 80.2841 273.943 79.9858 272.882 79.3892C271.822 78.7831 270.988 77.8741 270.382 76.6619C269.776 75.4403 269.473 73.9015 269.473 72.0455V58.1818H272.826V71.8182C272.826 73.4091 273.271 74.678 274.161 75.625C275.06 76.572 276.206 77.0455 277.598 77.0455C278.432 77.0455 279.279 76.8324 280.141 76.4062C281.012 75.9801 281.741 75.3267 282.328 74.446C282.925 73.5653 283.223 72.4432 283.223 71.0795ZM308.17 63.0682L305.159 63.9205C304.969 63.4186 304.69 62.9309 304.321 62.4574C303.961 61.9744 303.468 61.5767 302.843 61.2642C302.218 60.9517 301.418 60.7955 300.443 60.7955C299.108 60.7955 297.995 61.1032 297.105 61.7188C296.224 62.3248 295.784 63.0966 295.784 64.0341C295.784 64.8674 296.087 65.5256 296.693 66.0085C297.299 66.4915 298.246 66.8939 299.534 67.2159L302.772 68.0114C304.723 68.4848 306.177 69.2093 307.133 70.1847C308.09 71.1506 308.568 72.3958 308.568 73.9205C308.568 75.1705 308.208 76.2879 307.488 77.2727C306.778 78.2576 305.784 79.0341 304.505 79.6023C303.227 80.1705 301.74 80.4545 300.045 80.4545C297.82 80.4545 295.978 79.9716 294.519 79.0057C293.061 78.0398 292.138 76.6288 291.75 74.7727L294.931 73.9773C295.234 75.1515 295.807 76.0322 296.65 76.6193C297.502 77.2064 298.615 77.5 299.988 77.5C301.551 77.5 302.791 77.1686 303.71 76.5057C304.638 75.8333 305.102 75.0284 305.102 74.0909C305.102 73.3333 304.837 72.6989 304.306 72.1875C303.776 71.6667 302.962 71.2784 301.863 71.0227L298.227 70.1705C296.229 69.697 294.761 68.9631 293.823 67.9688C292.895 66.965 292.431 65.7102 292.431 64.2045C292.431 62.9735 292.777 61.8845 293.468 60.9375C294.169 59.9905 295.121 59.2472 296.323 58.7074C297.536 58.1676 298.909 57.8977 300.443 57.8977C302.602 57.8977 304.297 58.3712 305.528 59.3182C306.769 60.2652 307.649 61.5152 308.17 63.0682ZM313.614 80V58.1818H316.966V80H313.614ZM315.318 54.5455C314.665 54.5455 314.102 54.3229 313.628 53.8778C313.164 53.4328 312.932 52.8977 312.932 52.2727C312.932 51.6477 313.164 51.1127 313.628 50.6676C314.102 50.2225 314.665 50 315.318 50C315.972 50 316.531 50.2225 316.995 50.6676C317.468 51.1127 317.705 51.6477 317.705 52.2727C317.705 52.8977 317.468 53.4328 316.995 53.8778C316.531 54.3229 315.972 54.5455 315.318 54.5455ZM326.458 66.875V80H323.106V58.1818H326.345V61.5909H326.629C327.14 60.483 327.917 59.5928 328.958 58.9205C330 58.2386 331.345 57.8977 332.992 57.8977C334.47 57.8977 335.762 58.2008 336.87 58.8068C337.978 59.4034 338.84 60.3125 339.456 61.5341C340.071 62.7462 340.379 64.2803 340.379 66.1364V80H337.027V66.3636C337.027 64.6496 336.581 63.3144 335.691 62.358C334.801 61.392 333.58 60.9091 332.027 60.9091C330.956 60.9091 330 61.1411 329.157 61.6051C328.324 62.0691 327.666 62.7462 327.183 63.6364C326.7 64.5265 326.458 65.6061 326.458 66.875ZM355.652 80.4545C353.55 80.4545 351.737 79.9905 350.212 79.0625C348.697 78.125 347.527 76.8182 346.703 75.142C345.889 73.4564 345.482 71.4962 345.482 69.2614C345.482 67.0265 345.889 65.0568 346.703 63.3523C347.527 61.6383 348.673 60.303 350.141 59.3466C351.618 58.3807 353.342 57.8977 355.311 57.8977C356.448 57.8977 357.57 58.0871 358.678 58.4659C359.786 58.8447 360.794 59.4602 361.703 60.3125C362.613 61.1553 363.337 62.2727 363.877 63.6648C364.416 65.0568 364.686 66.7708 364.686 68.8068V70.2273H347.868V67.3295H361.277C361.277 66.0985 361.031 65 360.539 64.0341C360.056 63.0682 359.364 62.3059 358.465 61.7472C357.575 61.1884 356.523 60.9091 355.311 60.9091C353.976 60.9091 352.821 61.2405 351.845 61.9034C350.88 62.5568 350.136 63.4091 349.615 64.4602C349.095 65.5114 348.834 66.6383 348.834 67.8409V69.7727C348.834 71.4205 349.118 72.8172 349.686 73.9631C350.264 75.0994 351.064 75.9659 352.087 76.5625C353.11 77.1496 354.298 77.4432 355.652 77.4432C356.533 77.4432 357.328 77.3201 358.039 77.0739C358.758 76.8182 359.379 76.4394 359.899 75.9375C360.42 75.4261 360.823 74.7917 361.107 74.0341L364.345 74.9432C364.005 76.0417 363.432 77.0076 362.627 77.8409C361.822 78.6648 360.827 79.3087 359.644 79.7727C358.46 80.2273 357.13 80.4545 355.652 80.4545ZM385.24 63.0682L382.229 63.9205C382.04 63.4186 381.76 62.9309 381.391 62.4574C381.031 61.9744 380.539 61.5767 379.914 61.2642C379.289 60.9517 378.488 60.7955 377.513 60.7955C376.178 60.7955 375.065 61.1032 374.175 61.7188C373.294 62.3248 372.854 63.0966 372.854 64.0341C372.854 64.8674 373.157 65.5256 373.763 66.0085C374.369 66.4915 375.316 66.8939 376.604 67.2159L379.843 68.0114C381.793 68.4848 383.247 69.2093 384.203 70.1847C385.16 71.1506 385.638 72.3958 385.638 73.9205C385.638 75.1705 385.278 76.2879 384.559 77.2727C383.848 78.2576 382.854 79.0341 381.576 79.6023C380.297 80.1705 378.81 80.4545 377.115 80.4545C374.89 80.4545 373.048 79.9716 371.59 79.0057C370.131 78.0398 369.208 76.6288 368.82 74.7727L372.002 73.9773C372.305 75.1515 372.878 76.0322 373.72 76.6193C374.573 77.2064 375.685 77.5 377.059 77.5C378.621 77.5 379.862 77.1686 380.78 76.5057C381.708 75.8333 382.172 75.0284 382.172 74.0909C382.172 73.3333 381.907 72.6989 381.377 72.1875C380.846 71.6667 380.032 71.2784 378.934 71.0227L375.297 70.1705C373.299 69.697 371.831 68.9631 370.894 67.9688C369.966 66.965 369.502 65.7102 369.502 64.2045C369.502 62.9735 369.847 61.8845 370.539 60.9375C371.239 59.9905 372.191 59.2472 373.394 58.7074C374.606 58.1676 375.979 57.8977 377.513 57.8977C379.672 57.8977 381.367 58.3712 382.598 59.3182C383.839 60.2652 384.72 61.5152 385.24 63.0682ZM406.139 63.0682L403.127 63.9205C402.938 63.4186 402.659 62.9309 402.289 62.4574C401.93 61.9744 401.437 61.5767 400.812 61.2642C400.187 60.9517 399.387 60.7955 398.412 60.7955C397.076 60.7955 395.964 61.1032 395.073 61.7188C394.193 62.3248 393.752 63.0966 393.752 64.0341C393.752 64.8674 394.055 65.5256 394.662 66.0085C395.268 66.4915 396.215 66.8939 397.502 67.2159L400.741 68.0114C402.692 68.4848 404.145 69.2093 405.102 70.1847C406.058 71.1506 406.537 72.3958 406.537 73.9205C406.537 75.1705 406.177 76.2879 405.457 77.2727C404.747 78.2576 403.752 79.0341 402.474 79.6023C401.196 80.1705 399.709 80.4545 398.014 80.4545C395.788 80.4545 393.947 79.9716 392.488 79.0057C391.03 78.0398 390.107 76.6288 389.718 74.7727L392.9 73.9773C393.203 75.1515 393.776 76.0322 394.619 76.6193C395.471 77.2064 396.584 77.5 397.957 77.5C399.519 77.5 400.76 77.1686 401.679 76.5057C402.607 75.8333 403.071 75.0284 403.071 74.0909C403.071 73.3333 402.805 72.6989 402.275 72.1875C401.745 71.6667 400.93 71.2784 399.832 71.0227L396.196 70.1705C394.197 69.697 392.73 68.9631 391.792 67.9688C390.864 66.965 390.4 65.7102 390.4 64.2045C390.4 62.9735 390.746 61.8845 391.437 60.9375C392.138 59.9905 393.09 59.2472 394.292 58.7074C395.504 58.1676 396.877 57.8977 398.412 57.8977C400.571 57.8977 402.266 58.3712 403.497 59.3182C404.737 60.2652 405.618 61.5152 406.139 63.0682ZM427.776 80L421.128 58.1818H424.651L429.367 74.8864H429.594L434.253 58.1818H437.833L442.435 74.8295H442.662L447.378 58.1818H450.901L444.253 80H440.958L436.185 63.2386H435.844L431.071 80H427.776ZM455.333 80V58.1818H458.685V80H455.333ZM457.037 54.5455C456.384 54.5455 455.82 54.3229 455.347 53.8778C454.883 53.4328 454.651 52.8977 454.651 52.2727C454.651 51.6477 454.883 51.1127 455.347 50.6676C455.82 50.2225 456.384 50 457.037 50C457.691 50 458.249 50.2225 458.713 50.6676C459.187 51.1127 459.424 51.6477 459.424 52.2727C459.424 52.8977 459.187 53.4328 458.713 53.8778C458.249 54.3229 457.691 54.5455 457.037 54.5455ZM474.314 58.1818V61.0227H463.007V58.1818H474.314ZM466.302 52.9545H469.654V73.75C469.654 74.697 469.792 75.4072 470.066 75.8807C470.35 76.3447 470.71 76.6572 471.146 76.8182C471.591 76.9697 472.06 77.0455 472.552 77.0455C472.921 77.0455 473.224 77.0265 473.461 76.9886C473.698 76.9413 473.887 76.9034 474.029 76.875L474.711 79.8864C474.484 79.9716 474.167 80.0568 473.76 80.142C473.352 80.2367 472.836 80.2841 472.211 80.2841C471.264 80.2841 470.336 80.0805 469.427 79.6733C468.528 79.2661 467.779 78.6458 467.183 77.8125C466.596 76.9792 466.302 75.928 466.302 74.6591V52.9545ZM483.177 66.875V80H479.825V50.9091H483.177V61.5909H483.461C483.973 60.464 484.74 59.5691 485.762 58.9062C486.795 58.2339 488.168 57.8977 489.882 57.8977C491.368 57.8977 492.671 58.196 493.788 58.7926C494.905 59.3797 495.772 60.2841 496.387 61.5057C497.012 62.7178 497.325 64.2614 497.325 66.1364V80H493.973V66.3636C493.973 64.6307 493.523 63.2907 492.623 62.3438C491.733 61.3873 490.497 60.9091 488.916 60.9091C487.817 60.9091 486.832 61.1411 485.961 61.6051C485.099 62.0691 484.418 62.7462 483.916 63.6364C483.423 64.5265 483.177 65.6061 483.177 66.875ZM528.458 71.0795V58.1818H531.81V80H528.458V76.3068H528.23C527.719 77.4148 526.924 78.357 525.844 79.1335C524.764 79.9006 523.401 80.2841 521.753 80.2841C520.389 80.2841 519.177 79.9858 518.117 79.3892C517.056 78.7831 516.223 77.8741 515.617 76.6619C515.011 75.4403 514.708 73.9015 514.708 72.0455V58.1818H518.06V71.8182C518.06 73.4091 518.505 74.678 519.395 75.625C520.295 76.572 521.441 77.0455 522.833 77.0455C523.666 77.0455 524.514 76.8324 525.375 76.4062C526.247 75.9801 526.976 75.3267 527.563 74.446C528.159 73.5653 528.458 72.4432 528.458 71.0795ZM553.404 63.0682L550.393 63.9205C550.204 63.4186 549.924 62.9309 549.555 62.4574C549.195 61.9744 548.703 61.5767 548.078 61.2642C547.453 60.9517 546.653 60.7955 545.677 60.7955C544.342 60.7955 543.229 61.1032 542.339 61.7188C541.458 62.3248 541.018 63.0966 541.018 64.0341C541.018 64.8674 541.321 65.5256 541.927 66.0085C542.533 66.4915 543.48 66.8939 544.768 67.2159L548.007 68.0114C549.957 68.4848 551.411 69.2093 552.367 70.1847C553.324 71.1506 553.802 72.3958 553.802 73.9205C553.802 75.1705 553.442 76.2879 552.723 77.2727C552.012 78.2576 551.018 79.0341 549.74 79.6023C548.461 80.1705 546.974 80.4545 545.279 80.4545C543.054 80.4545 541.212 79.9716 539.754 79.0057C538.296 78.0398 537.372 76.6288 536.984 74.7727L540.166 73.9773C540.469 75.1515 541.042 76.0322 541.885 76.6193C542.737 77.2064 543.849 77.5 545.223 77.5C546.785 77.5 548.026 77.1686 548.944 76.5057C549.872 75.8333 550.336 75.0284 550.336 74.0909C550.336 73.3333 550.071 72.6989 549.541 72.1875C549.01 71.6667 548.196 71.2784 547.098 71.0227L543.461 70.1705C541.463 69.697 539.995 68.9631 539.058 67.9688C538.13 66.965 537.666 65.7102 537.666 64.2045C537.666 62.9735 538.011 61.8845 538.703 60.9375C539.403 59.9905 540.355 59.2472 541.558 58.7074C542.77 58.1676 544.143 57.8977 545.677 57.8977C547.836 57.8977 549.531 58.3712 550.762 59.3182C552.003 60.2652 552.884 61.5152 553.404 63.0682Z" fill="#565656"/>
</svg>
